<?xml version="1.0" encoding="UTF-8" standalone="no"?>
<!-- Created with Inkscape (http://www.inkscape.org/) -->

<svg
   xmlns:dc="http://purl.org/dc/elements/1.1/"
   xmlns:cc="http://creativecommons.org/ns#"
   xmlns:rdf="http://www.w3.org/1999/02/22-rdf-syntax-ns#"
   xmlns:svg="http://www.w3.org/2000/svg"
   xmlns="http://www.w3.org/2000/svg"
   xmlns:sodipodi="http://sodipodi.sourceforge.net/DTD/sodipodi-0.dtd"
   xmlns:inkscape="http://www.inkscape.org/namespaces/inkscape"
   width="744.09448819"
   height="1052.3622047"
   id="svg2"
   version="1.1"
   inkscape:version="0.91 r13725"
   sodipodi:docname="plan_hladkov_suteren.svg">
  <defs
     id="defs4">
    <inkscape:path-effect
       effect="spiro"
       id="path-effect3612"
       is_visible="true" />
    <inkscape:path-effect
       effect="spiro"
       id="path-effect3608"
       is_visible="true" />
    <inkscape:path-effect
       effect="spiro"
       id="path-effect3604"
       is_visible="true" />
    <inkscape:path-effect
       effect="spiro"
       id="path-effect3600"
       is_visible="true" />
    <inkscape:path-effect
       effect="spiro"
       id="path-effect3596"
       is_visible="true" />
    <inkscape:path-effect
       effect="spiro"
       id="path-effect3592"
       is_visible="true" />
    <inkscape:path-effect
       effect="spiro"
       id="path-effect3588"
       is_visible="true" />
    <inkscape:path-effect
       effect="spiro"
       id="path-effect3482"
       is_visible="true" />
    <inkscape:path-effect
       effect="spiro"
       id="path-effect3478"
       is_visible="true" />
    <inkscape:path-effect
       effect="spiro"
       id="path-effect3466"
       is_visible="true" />
    <inkscape:path-effect
       effect="spiro"
       id="path-effect3449"
       is_visible="true" />
    <inkscape:path-effect
       effect="spiro"
       id="path-effect3417"
       is_visible="true" />
    <inkscape:path-effect
       effect="spiro"
       id="path-effect3395"
       is_visible="true" />
    <inkscape:path-effect
       effect="spiro"
       id="path-effect3391"
       is_visible="true" />
    <inkscape:path-effect
       effect="spiro"
       id="path-effect3200"
       is_visible="true" />
    <inkscape:path-effect
       effect="spiro"
       id="path-effect3034"
       is_visible="true" />
    <inkscape:path-effect
       effect="spiro"
       id="path-effect3030"
       is_visible="true" />
    <inkscape:path-effect
       effect="spiro"
       id="path-effect3026"
       is_visible="true" />
    <inkscape:path-effect
       effect="spiro"
       id="path-effect3022"
       is_visible="true" />
    <inkscape:path-effect
       effect="spiro"
       id="path-effect3018"
       is_visible="true" />
    <inkscape:path-effect
       effect="spiro"
       id="path-effect3014"
       is_visible="true" />
    <inkscape:path-effect
       effect="spiro"
       id="path-effect3010"
       is_visible="true" />
    <inkscape:path-effect
       effect="spiro"
       id="path-effect3006"
       is_visible="true" />
    <inkscape:path-effect
       effect="spiro"
       id="path-effect3002"
       is_visible="true" />
    <inkscape:path-effect
       effect="spiro"
       id="path-effect2998"
       is_visible="true" />
    <inkscape:path-effect
       effect="spiro"
       id="path-effect3391-9"
       is_visible="true" />
    <inkscape:path-effect
       is_visible="true"
       id="path-effect3747"
       effect="spiro" />
    <inkscape:path-effect
       is_visible="true"
       id="path-effect3723"
       effect="spiro" />
    <inkscape:path-effect
       is_visible="true"
       id="path-effect3717"
       effect="spiro" />
    <inkscape:path-effect
       is_visible="true"
       id="path-effect3472"
       effect="spiro" />
    <inkscape:path-effect
       is_visible="true"
       id="path-effect3270"
       effect="spiro" />
    <inkscape:path-effect
       is_visible="true"
       id="path-effect3168"
       effect="spiro" />
    <inkscape:path-effect
       is_visible="true"
       id="path-effect3153"
       effect="spiro" />
    <inkscape:path-effect
       is_visible="true"
       id="path-effect3055"
       effect="spiro" />
    <inkscape:path-effect
       is_visible="true"
       id="path-effect3051"
       effect="spiro" />
    <inkscape:path-effect
       is_visible="true"
       id="path-effect3047"
       effect="spiro" />
    <inkscape:path-effect
       is_visible="true"
       id="path-effect3043"
       effect="spiro" />
    <inkscape:path-effect
       is_visible="true"
       id="path-effect3039"
       effect="spiro" />
    <inkscape:path-effect
       is_visible="true"
       id="path-effect3035"
       effect="spiro" />
    <inkscape:path-effect
       is_visible="true"
       id="path-effect3031"
       effect="spiro" />
    <inkscape:path-effect
       is_visible="true"
       id="path-effect3027"
       effect="spiro" />
    <inkscape:path-effect
       is_visible="true"
       id="path-effect3023"
       effect="spiro" />
    <inkscape:path-effect
       is_visible="true"
       id="path-effect3019"
       effect="spiro" />
    <inkscape:path-effect
       is_visible="true"
       id="path-effect3015"
       effect="spiro" />
    <inkscape:path-effect
       is_visible="true"
       id="path-effect3011"
       effect="spiro" />
    <inkscape:path-effect
       is_visible="true"
       id="path-effect3007"
       effect="spiro" />
    <inkscape:path-effect
       is_visible="true"
       id="path-effect3270-1"
       effect="spiro" />
    <inkscape:path-effect
       is_visible="true"
       id="path-effect3472-5"
       effect="spiro" />
    <inkscape:path-effect
       is_visible="true"
       id="path-effect3270-1-7"
       effect="spiro" />
    <inkscape:path-effect
       is_visible="true"
       id="path-effect3270-1-7-1"
       effect="spiro" />
    <inkscape:path-effect
       is_visible="true"
       id="path-effect3270-1-4"
       effect="spiro" />
    <inkscape:path-effect
       is_visible="true"
       id="path-effect3270-1-75"
       effect="spiro" />
    <inkscape:path-effect
       is_visible="true"
       id="path-effect3270-1-75-3"
       effect="spiro" />
  </defs>
  <sodipodi:namedview
     id="base"
     pagecolor="#ffffff"
     bordercolor="#666666"
     borderopacity="1.0"
     inkscape:pageopacity="0.0"
     inkscape:pageshadow="2"
     inkscape:zoom="1.4"
     inkscape:cx="417.83305"
     inkscape:cy="791.91451"
     inkscape:document-units="px"
     inkscape:current-layer="layer1"
     showgrid="false"
     inkscape:window-width="1680"
     inkscape:window-height="987"
     inkscape:window-x="1358"
     inkscape:window-y="-8"
     inkscape:window-maximized="1" />
  <metadata
     id="metadata7">
    <rdf:RDF>
      <cc:Work
         rdf:about="">
        <dc:format>image/svg+xml</dc:format>
        <dc:type
           rdf:resource="http://purl.org/dc/dcmitype/StillImage" />
        <dc:title />
      </cc:Work>
    </rdf:RDF>
  </metadata>
  <g
     inkscape:label="Layer 1"
     inkscape:groupmode="layer"
     id="layer1">
    <path
       style="fill:none;stroke:#000000;stroke-width:0.83704108px;stroke-linecap:butt;stroke-linejoin:miter;stroke-opacity:1"
       d="m 673.07671,392.19283 -0.42277,158.32721 -587.226943,4.43908 -48.407117,-54.96005 65.74067,-477.518241 156.42474,21.34987 -44.17942,337.792891 13.74002,14.37417 444.33082,-3.80493 z"
       id="path3020"
       inkscape:path-effect="#path-effect3022"
       inkscape:original-d="M 673.07671,392.19283 672.65394,550.52004 85.426997,554.95912 37.01988,499.99907 102.76055,22.480829 259.18529,43.830699 215.00587,381.62359 228.74589,395.99776 Z"
       inkscape:connector-curvature="0"
       sodipodi:nodetypes="ccccccccc" />
    <g
       id="g3182"
       transform="matrix(0.83704106,0,0,0.83704106,54.987587,-160.60833)">
      <g
         id="g3577">
        <path
           sodipodi:nodetypes="ccccc"
           style="fill:#ffffff;stroke:#000000;stroke-width:1px;stroke-linecap:butt;stroke-linejoin:miter;stroke-opacity:1"
           d="M 71.294978,633.38038 186.22521,647.22973 210.3262,463.72642 95.711954,448.29096 71.294978,633.38038 Z"
           id="path3008"
           inkscape:path-effect="#path-effect3010"
           inkscape:original-d="M 71.294978,633.38038 186.22521,647.22973 210.3262,463.72642 95.711954,448.29096 Z"
           inkscape:connector-curvature="0" />
        <g
           id="flowRoot3558"
           style="font-style:normal;font-variant:normal;font-weight:100;font-stretch:normal;font-size:22.5px;line-height:125%;font-family:'AR BLANCA';-inkscape-font-specification:'AR BLANCA Thin';letter-spacing:0px;word-spacing:0px;fill:#000000;fill-opacity:1;stroke:none;stroke-width:1px;stroke-linecap:butt;stroke-linejoin:miter;stroke-opacity:1"
           transform="matrix(1.1854953,0.14789144,-0.14789144,1.1854953,-164.6592,172.51495)">
          <path
             inkscape:connector-curvature="0"
             id="path3567"
             d="m 262.05195,277.84325 0.18,-0.135 0,-0.135 q 0.2025,-0.3375 0.2925,-0.495 0.315,-0.54 0.3375,-0.5625 0.2025,-0.36 0.405,-0.7425 l 0.1125,0 0.09,-0.3825 0.1575,-0.045 0.18,-0.45 q 0.09,-0.0225 0.2025,-0.2925 0.36,-0.8775 1.1475,-2.07 2.1825,-3.3075 2.25,-3.4425 l 0.0675,-0.09 -0.045,-0.045 -0.2475,0.0225 -0.36,-0.045 -0.2925,-0.2475 q 0.09,-0.315 0.4275,-0.81 0.36,-0.495 0.6075,-0.675 0.045,-0.1125 0.0675,-0.135 0.045,-0.045 0.0675,-0.0225 0.3825,-0.5175 1.6425,-0.765 1.2825,-0.27 2.5425,-0.27 0.18,0 0.3375,0.0225 0.18,0 0.45,0.0225 0.2925,0.0225 0.6525,0.0675 0.36,0.0225 0.54,0.1125 l 0.1125,0.135 q 0.0225,0.0225 0.09,0 0,-0.0225 0,-0.045 0.27,0.045 0.54,0.18 0.1575,0.0675 0.495,0.2925 0,0.0675 0,0.1125 0.0225,0 0.1125,0 0.09,0 0.18,0.135 0.09,0.135 0.18,0.0225 l 0.135,0.2475 q 0.045,-0.0225 0.0675,0.0225 0.0225,0.0225 0.045,0.045 0,0.135 0.1575,0.315 0.18,0.1575 0.2025,0.2475 l -0.2025,0.1125 0.1575,0.18 q 0.045,0.0225 0.09,0.045 -0.045,0.18 -0.18,0.2475 l 0.36,0.0225 0,0.09 -0.09,-0.0225 q -0.045,0 -0.0675,0.2025 l 0.0675,0.0225 0.0675,-0.045 q 0.0225,0.045 -0.18,0.18 0,0.0675 0.0225,0.1125 l -0.18,0.2025 0.3825,0 q -0.0675,0.045 -0.0675,0.2025 0,0.135 -0.045,0.135 l -0.2475,0 0,0.1125 0.09,0.045 q 0.135,-0.0675 0.2925,-0.135 -0.09,0.3375 -0.3825,0.3825 0.09,0.09 -0.0225,0.2025 -0.1125,0.1125 -0.1125,0.1575 l 0.1125,0 0.45,-0.2475 -0.1575,0.09 0.0225,0.0675 -0.2475,0.2025 -0.135,-0.0225 -0.1575,0.3825 -0.2475,0.2025 0,0.1575 0.225,-0.045 0.0675,0.3825 -0.225,-0.0225 q 0.0225,0.045 -0.045,0.1125 -0.0675,0.0675 -0.135,0.0225 l 0.2025,0.18 0,0.1575 q 0,0.2925 -0.315,0.2925 l 0.045,0.2025 q -0.3825,0.1575 -0.585,0.045 -0.045,0.0675 -0.0225,0.135 0.045,0.0675 0.0675,0.09 l -0.0225,0.2025 -0.27,0.09 -0.135,0.045 0.225,0.0225 0.1575,0.045 q 0.0675,-0.0675 0.1575,-0.1575 l 0.1125,0.1125 -0.2475,0.2475 -0.4725,0.045 q -0.1125,0.1575 -0.1125,0.2925 l 0.09,0 0.1575,-0.09 0,0.1125 q -0.2025,0.045 -0.3375,0.0225 l -0.27,0.2475 0,0.1575 0.27,0.0225 -0.4725,0.1575 -0.1575,0.27 q 0.045,0.0675 -0.0675,0.1125 l -0.3375,0.0675 0,0.135 0.4275,0.0675 0.2025,-0.1575 0.0675,-0.1125 -0.2475,0.45 q -0.09,-0.0225 -0.18,-0.045 -0.135,0.2025 -0.2925,0.2925 -0.135,0.09 -0.4725,0.18 0.0225,0.045 0.045,0.0675 0.045,0.0225 0.1575,0.045 l -0.2925,0.1125 -0.1575,0.2475 -0.2025,0.0675 q -0.18,0.2475 -0.1575,0.27 l -0.225,0.0225 q 0.09,0.1575 -0.0225,0.18 -0.1125,0 -0.27,0 l -0.36,0.0675 0,0.09 q 0.0225,0.0225 0.1125,-0.0225 0.045,0.0225 0.09,0.0225 -0.135,0.045 -0.135,0.2475 l -0.225,0.0675 q -0.045,0.045 -0.0675,0.09 -0.045,0 -0.1575,0.0225 l -0.045,0.135 q -0.09,0.0675 -0.18,0.09 -0.0675,0.0225 -0.1125,0.0225 l -0.045,-0.09 -0.135,0.315 -0.3825,0 q -0.0225,0.2025 -0.36,0.3375 0.09,0.09 0.18,0.1575 -0.135,-0.0225 -0.2475,-0.045 l -0.2475,0.135 0,0.09 q 0.1125,0 0.135,0 0.0225,0 0.0225,0.0675 l -0.18,0.045 q -0.135,0.135 -0.18,0.18 -0.0225,0.0225 -0.2475,0.0225 -0.0675,0.1125 -0.0675,0.1575 -0.2025,0.045 -0.3825,0.135 -0.1575,0.0675 -0.2025,0.225 l -0.09,-0.045 q -0.225,0 -0.3375,0.27 l -0.225,-0.0225 q -0.2025,0.2025 -1.0575,0.6525 -0.8325,0.45 -1.1475,0.4725 -0.27,0.315 -1.035,0.63 -0.585,0.2475 -1.1925,0.36 -0.0675,-0.045 -0.27,-0.045 -0.5175,0 -0.6975,-0.045 -0.1575,-0.0225 -0.63,-0.2025 -0.2025,-0.225 -0.315,-0.45 -0.135,-0.2475 -0.18,-0.495 0.0225,-0.3375 0.63,-1.35 0.2925,-0.495 0.2925,-0.72 0,-0.0225 0.135,-0.135 0.135,-0.1125 0.09,-0.225 z m 3.06,0.765 0,0.1575 0.1575,0.0675 0.45,-0.045 0.2025,-0.18 0.1575,0 q 0.09,-0.0675 0.5625,-0.2475 0.495,-0.2025 0.6075,-0.36 l 0.18,0 q 0.045,0 0.045,-0.18 0.3375,-0.0675 0.6075,-0.2025 l 0.1575,-0.135 0.045,-0.135 q 0.0675,0.0225 0.3375,-0.1125 l 0.0675,0.0225 q 0.1575,-0.2475 0.45,-0.4725 0.2025,-0.135 0.585,-0.3375 l 0,-0.1575 q 0.405,-0.2475 0.8325,-0.6525 0.315,-0.2925 0.7425,-0.81 0.315,-0.36 0.585,-0.7425 0.27,-0.405 0.585,-0.945 l 0.1125,0 q -0.0225,-0.2025 0.135,-0.6075 0.1575,-0.405 0.315,-0.5625 l -0.0225,-0.1125 0.1125,-0.0675 q -0.045,-0.1575 0,-0.495 0.0675,-0.3375 0.135,-0.765 0,-0.9225 -0.675,-1.4625 -0.6525,-0.5625 -1.5975,-0.5625 l -0.5175,0.0675 q 0.09,0.09 0.09,0.18 -0.135,-0.0225 -0.225,0.2475 -0.0675,0.2475 -0.045,0.3825 -0.225,0.18 -0.1575,0.45 l -0.1575,0.045 -0.045,0.135 q -0.0225,-0.0225 -0.09,0.0225 -0.045,0.0225 0,0.09 l -0.18,0.315 0.0225,0.135 -0.225,0.09 -0.0225,0.2025 -0.225,0.045 -0.045,0.18 0.1125,0.18 -0.045,0.045 -0.3375,0.045 -0.0225,0.09 0.0675,0.135 0.225,-0.045 q -0.1125,0.0675 -0.2475,0.2475 -0.135,0.1575 -0.1575,0.2925 l -0.135,0.225 -0.09,0 -0.0675,0.135 -0.09,0 -0.045,0.18 0.09,0.0225 0.2025,-0.0675 q -0.18,0.2025 -0.36,0.18 l 0,0.27 -0.09,0 q -0.0225,-0.0225 0,-0.0675 0.0225,-0.0675 -0.0675,-0.0675 l -0.045,0.09 0.1125,0.1125 0.045,0.1125 -0.225,0.3375 -0.0675,0.0675 -0.225,0.0675 -0.1575,0.3375 0.135,0.3375 -0.405,0 -0.0225,0.0675 0.18,0.09 0.1125,0 q -0.09,0.1125 -0.2475,0.18 -0.1575,0.045 -0.3375,0.0675 l -0.0675,0.1575 0.045,0.1125 0.1125,-0.09 0.18,0 0,0.1125 q -0.045,0.0675 -0.09,0.1125 l -0.225,0.0225 0,0.09 -0.2025,0.045 q 0.045,0.09 0.0675,0.1125 0.0225,0.0225 0.045,0.045 l -0.225,0.1125 -0.0225,-0.09 q -0.27,0.2475 -0.36,0.585 l -0.18,0.045 0,0.2025 q 0.315,-0.1575 0.4725,-0.1575 l 0.045,0.045 -0.2025,0.09 q -0.135,0.315 -0.3825,0.3825 l 0.045,0.09 -0.2475,0.1575 -0.045,0.18 0.1575,0 0.09,-0.1125 0.045,0.0675 q -0.09,0.1125 -0.0675,0.18 l -0.2025,-0.045 q -0.2925,0.135 -0.36,0.2925 l 0.0225,0.135 0.0675,-0.0675 0.045,-0.045 0.225,-0.045 0.09,-0.0675 -0.2025,0.315 -0.18,0.0225 0.09,0.0225 0,0.1575 -0.135,0.2475 -0.2025,-0.045 -0.1575,0.045 0,0.2925 -0.0675,0.045 -0.045,0.135 q 0.045,0 0.09,0 0.0675,-0.0225 0.09,-0.045 z" />
          <path
             inkscape:connector-curvature="0"
             id="path3569"
             d="m 277.87473,273.52325 q 0.27,-0.495 0.765,-1.2825 0.675,-1.0575 0.7875,-1.26 l 0.27,-0.3825 0.5625,-0.8325 0.6075,-0.9675 q 0.945,-1.26 1.1025,-1.3725 0.1575,-0.1125 1.845,-0.765 l 0.135,0.0225 q 0.045,0 0.1575,-0.1125 0.135,-0.1125 0.18,-0.0225 0.135,-0.0225 0.2475,-0.0675 0.135,-0.045 0.1575,-0.09 0.225,0.0675 0.3825,0.2925 -0.1125,0.4725 -0.225,0.765 -0.2025,0.54 -0.2925,0.7875 l -0.135,-0.0225 0.0675,0.135 q 0,0.0675 -0.1125,0.0675 -0.1125,-0.0225 -0.2025,-0.0225 l -0.0675,0.1125 0.045,0.1575 0.27,-0.0675 -0.045,0.1575 -0.3375,0.1125 0.18,0.045 -0.2025,0.2475 q -0.0225,0.0225 -0.09,-0.045 -0.0675,-0.09 -0.135,-0.0675 l 0.225,0.2025 -0.2925,0.405 -0.36,-0.0675 0,0.2475 q 0.045,-0.045 0.09,0.0675 0.045,0.1125 0.135,0.045 -0.27,0.2025 -0.4275,0.5175 -0.135,0.2925 -0.2925,0.63 -0.1125,0.0225 -0.09,0.09 0.0225,0.0675 0.045,0.09 -0.1125,0.09 -0.1575,0.1125 -0.18,0.135 -0.225,0.18 l -0.0675,0.2925 -0.09,0 0.09,0.315 q -0.135,0.0675 -0.18,0.1125 -0.0225,0.0225 -0.0225,0.045 l -0.2025,0.0675 0,0.1125 q -0.315,0.405 -0.36,0.495 -0.1575,0.2475 -0.3375,0.5625 l -0.2025,0.225 q -0.0675,-0.045 -0.1575,0 -0.0675,0.045 -0.0675,0.1125 l 0.09,0.2475 0.045,-0.045 0.2025,0 -0.3375,0.18 -0.1125,0.18 0,0.1125 -0.09,-0.0225 -0.09,0.1125 -0.045,0.0225 q 0.045,0.09 0.045,0.135 l -0.18,0.0675 -0.09,0.36 -0.495,0.2025 0,0.1125 0.225,0 q 0,0.2925 -0.18,0.5175 l -0.2925,0.1125 q 0.0225,0.045 0.135,0.09 l -0.2025,0.1125 q 0.045,0.1575 -0.225,0.1575 l 0.09,0.36 -0.1575,-0.0225 -0.09,0.0225 -0.0675,0.2025 -0.2925,-0.0675 -0.1125,0.09 -0.2475,-0.0225 -0.1575,0.1125 0.0675,0.09 q 0.18,-0.0675 0.45,-0.09 0.2925,-0.0225 0.3375,-0.0225 l -0.1125,0.2025 -0.225,-0.045 0,0.1575 0.2025,0 q -0.1125,0.18 -0.225,0.405 -0.225,0.405 -0.27,0.7425 -0.27,0 -0.405,0.2025 0.045,0.0675 0.09,0.1125 l -0.135,0.27 -0.18,-0.0225 -0.135,0.1125 q 0,0.1125 0.0675,0.09 0.09,-0.0225 0.1575,-0.045 l 0,0.135 -0.09,0.09 q -0.0225,-0.0225 -0.045,-0.0675 l -0.225,0.36 -0.135,0.18 -0.7425,0.18 q -0.1575,0.0675 -0.2925,0.135 -0.1125,0.0675 -0.135,0.1575 l -0.45,-0.09 -0.2925,0.27 -0.27,0 -0.1575,0.225 -0.1125,0.1575 -0.2025,-0.1125 -0.09,0.1125 -0.0675,-0.045 -0.3375,0.045 q 0,-0.63 0.54,-1.845 0.315,-0.72 1.7325,-3.24 0.36,-0.54 0.72,-1.2375 0.225,-0.4275 0.63,-1.2825 z m 5.355,-9.315 -0.0225,-0.1575 q 0.1575,-0.3825 0.63,-0.9225 0.495,-0.5625 0.81,-0.765 l 0.045,-0.09 -0.045,-0.1125 0.09,-0.0675 0.0225,-0.1125 0.2925,0 0,-0.135 -0.0675,-0.045 -0.0675,-0.045 q 0.27,-0.2025 0.855,-0.2025 0.09,0 0.2475,0.1125 0.1575,0.09 0.2925,0.18 0.1125,0 0.2025,0.045 0.1125,0.0225 0.315,0.0675 0.2025,0.045 0.45,0.09 0.27,0.1125 0.27,0.45 0,0.27 -0.675,0.855 -0.675,0.585 -0.8775,0.585 -0.09,0.09 -0.09,0.2025 -0.1125,0.09 -0.315,0.18 -0.2025,0.0675 -0.2475,0.09 l 0.0225,0.135 q -0.6075,0.405 -0.81,0.495 -0.2025,0.09 -0.4725,0.09 l 0,-0.18 -0.0675,-0.045 -0.135,0.0675 -0.09,-0.0225 -0.135,-0.2025 q -0.2025,0 -0.4275,-0.1125 l -0.0225,-0.18 -0.135,-0.1575 0.1575,-0.09 z" />
          <path
             inkscape:connector-curvature="0"
             id="path3571"
             d="m 282.41937,279.91325 -0.1125,-0.315 -0.135,0.0675 0.135,-0.585 0.15751,0 -0.0225,-0.225 q 0,-0.09 0.1575,-0.3825 0.135,-0.2925 0.315,-0.63 0.0675,-0.2025 0.135,-0.18 l 0.315,-0.81 q 0.0675,-0.0675 0.135,-0.1575 l 0.58501,-1.2375 q 0.0675,-0.135 0.22499,-0.3825 0.15751,-0.2475 0.18,-0.3375 0.045,-0.09 0.1125,-0.27 0.09,-0.2025 0.27,-0.5625 0.315,-0.6075 0.6975,-1.1475 0.54,-0.9 0.81,-1.3725 0.7875,-1.35 0.9675,-1.71 0.0675,0.045 0.0675,0 0.0225,-0.0675 0.0225,-0.1575 0.0225,-0.0225 0.0675,-0.045 0.0225,0.0225 0.0675,0.1125 l 0.0675,-0.045 -0.09,-0.09 0.0225,-0.1125 0.225,0 q 0,-0.0225 -0.045,-0.0225 -0.045,-0.0225 -0.1125,-0.045 l 0.0675,-0.18 0.15749,0.0225 -0.0225,-0.2025 0.35999,-0.2475 -0.0675,-0.135 q 0.1125,-0.2475 0.1575,-0.3375 0.045,-0.09 0.27,-0.405 l 0.1125,-0.0225 q 0.15751,-0.27 0.36,-0.5625 0.225,-0.2925 0.45,-0.585 0.45,-0.18 0.9,-0.36 0.2475,-0.09 0.495,-0.1125 0.27001,-0.0225 0.405,-0.0225 0.135,0 0.1575,-0.045 l 0.4275,0 0.0225,0.225 q 0,0.1125 -0.20251,0.5175 -0.2025,0.3825 -0.53999,0.9 l -0.15751,0.0675 0.045,0.0675 0.18001,-0.045 0,0.135 q -0.09,0.045 -0.18001,0.09 -0.09,0.0225 -0.1125,0 l -0.15749,0.135 q -0.045,0.09 0.045,0.18 0.0225,0.0225 0.0675,0.0225 -0.09,0.045 -0.18,0.0675 l -0.09,0.2925 q -0.135,0.0225 -0.135,0.09 0.0225,0.0675 0.0675,0.18 0,0.1125 -0.0675,0.2475 -0.0675,0.135 -0.09,0.2025 l -0.45,0.135 0,0.09 q 0,0.045 0.1125,0.09 0.135,0.045 0.135,0.1125 0,0.045 -0.09,0.09 -0.09,0.0225 -0.135,0 -0.13501,0.36 -0.13501,0.5175 l -0.09,0.0225 -0.045,0.135 -0.15749,-0.0225 q -0.0675,0.1575 -0.09,0.225 -0.09,0.09 -0.15749,0.1575 l -0.22501,0.1575 0,0.36 0.15751,0.0225 -0.11251,0.18 -0.13499,-0.1125 -0.09,0.2925 0.09,0 0,0.135 -0.22501,0.0225 -0.045,0.2925 -0.11249,0 q -0.11251,0.225 -0.2475,0.495 -0.11251,0.2475 -0.15751,0.45 l 0.0225,0.09 -0.11249,0 -0.22501,0.18 q 0.27,-0.045 0.2025,0.2025 l -0.2475,0.0675 -0.0675,0.36 0.09,0.045 q -0.2475,0.045 -0.27001,0.0225 l -0.135,0.45 0.0225,0.2025 q 0,0.0675 -0.0225,0.18 -0.0225,0.09 -0.0225,0.135 l -0.20249,0.2475 -0.20251,-0.09 q -0.045,-0.0225 -0.11249,0.225 -0.0675,0.2475 -0.0675,0.2925 l -0.15751,-0.045 -0.045,0.045 0.2475,0.09 0.0225,0.2475 -0.495,0.27 0.18,0.2925 -0.045,0.1575 -0.225,0 -0.0675,0.1125 0.0675,0.4725 q -0.0675,0 -0.045,0.09 0.045,0.0675 0.0225,0.09 l -0.2475,0 0,0.135 -0.1575,0.1575 q 0,0.09 0.13501,0.135 0,0.045 0.0225,0.0675 l -0.225,0 0,0.2025 q -0.18,0.0675 -0.09,0.18 0.135,-0.0225 0.315,-0.09 0.2025,-0.0675 0.29251,-0.09 l 0.20249,0.045 q 0.1575,0 0.49501,-0.09 0.33749,-0.1125 0.53999,-0.225 l 0.38251,0 -0.0675,-0.135 0.36,0.045 0.135,-0.0675 0.33751,0 0.20249,-0.0675 0.2025,-0.045 q 0.225,-0.045 0.2025,-0.09 0,-0.045 0,-0.09 l 0.20251,0.0675 0.4275,-0.1125 0.0675,-0.09 0.20249,0 q 0.1575,-0.0675 0.29251,-0.1125 0.15749,-0.045 0.17999,0.045 0.20251,0 0.6075,-0.0675 0.40501,-0.0675 0.63,-0.0675 0.15751,0 0.33751,0.0675 0.18,0.045 0.315,0.0675 l 0.09,0.2475 -0.1125,0.1575 q -0.22499,0.045 -0.3375,0.135 0.09,0.18 0.09,0.405 -0.11249,0.1125 -0.1575,0.18 -0.38249,0.405 -0.44999,0.45 l 0,0.2025 -0.315,-0.0225 -0.045,0.045 0.0225,0.225 -0.2025,0.135 -0.45,-0.0225 q -0.0675,0.045 -0.27,0.18 -0.17999,0.1125 -0.27,0.135 l -0.09,-0.0675 -0.15751,0.045 -0.09,0.2025 q -0.0675,0.045 -0.135,-0.045 -0.045,-0.09 0.045,-0.135 l -0.45,0.1125 -0.15749,0.225 q -0.045,-0.1125 -0.0225,-0.135 l -0.2025,-0.09 0.09,0.2025 -0.315,0.0675 0.045,-0.1575 -0.15749,0 -0.2475,0.0225 -0.18,0.18 q -0.315,0 -0.49501,0.2475 l -0.20249,0 q -0.0675,-0.0225 -0.11251,-0.0225 -0.045,-0.0225 -0.1575,0 -0.09,-0.1125 -0.135,-0.0675 -0.045,0.18 -0.045,0.2475 l -0.2025,0.0675 -0.1125,-0.135 q 0.0225,0.045 -0.0675,0.09 -0.09,0.045 -0.27,0.1125 -0.1575,0.0675 -0.225,0.09 l -0.11249,-0.2025 q -0.045,-0.0225 -0.09,0.0225 -0.045,0.045 -0.045,0.09 -0.225,0.18 -0.45,0.18 l 0,0.2025 q -0.18,-0.0675 -0.1125,-0.1575 -0.1575,0 -0.45,0.1125 -0.27,0.09 -0.40499,0.09 l -0.0675,0.09 q -0.36001,0.0225 -0.5625,0.0225 -0.11251,-0.045 -0.13501,-0.09 -0.0225,-0.045 0.045,-0.0675 l 0.09,0 -0.0225,-0.1125 -0.315,0 -0.29249,-0.09 -0.15751,-0.2925 -0.15749,0.0225 q -0.09,0 -0.18,-0.18 -0.09,-0.18 -0.11251,-0.225 l -0.0675,0.0225 -0.18001,-0.09 0.1575,-0.09 0,-0.09 q 0,-0.045 -0.11249,-0.0675 -0.11251,-0.0225 -0.11251,-0.0675 l -0.20249,-0.0675 0.33749,-0.0675 z" />
          <path
             inkscape:connector-curvature="0"
             id="path3573"
             d="m 293.47531,278.65325 0.1125,0.0225 q 0.4725,-1.215 1.485,-2.79 0.9225,-1.35 1.845,-2.7225 1.125,-1.6875 1.6425,-2.79 l 0.09,-0.0225 q 0.495,-1.0575 0.63,-1.35 0.405,-0.8325 0.63,-1.3725 0.0675,0.045 0.09,0 0.0225,-0.045 0.0225,-0.0675 0.18,-0.18 0.54,-0.3375 0.8775,-0.4725 1.7775,-0.945 0.315,0.54 0.4275,1.26 0.1125,0.6975 0.1125,1.575 l 0,0.54 0.1125,0 0.1125,0.495 -0.09,0.2025 0.09,0.225 -0.09,0.135 q 0.09,0.27 0.09,0.405 0,0.27 0.09,0.4275 -0.0675,0.135 -0.0675,0.315 0,0.1125 0,0.2025 0.045,0.09 0.045,0.1125 l -0.1125,0.1125 q 0.09,0.0225 0.1575,0.09 0.0675,0.045 0,0.1575 -0.09,0.0225 -0.1125,0.045 -0.135,0.1125 -0.135,0.2925 0,0.135 0.09,0.1125 0.1125,-0.0225 0.2475,-0.09 l -0.09,0.405 q 0.0225,0.09 0.0675,0.1575 l 0.045,0.2925 q 0,0.18 -0.045,0.2025 -0.045,0.0225 -0.0675,0.045 l 0.1575,0.315 0.09,-0.0225 q 0.36,-0.675 1.0125,-1.5525 0.5625,-0.7425 1.1475,-1.5075 0.36,-0.54 0.7425,-1.08 1.26,-1.71 1.575,-2.07 0.945,-1.08 1.98,-1.5975 0.225,0 0.45,-0.1125 0.3375,-0.18 0.675,-0.36 l 0.2475,0.1125 0,0.135 q -0.27,0.6525 -0.7875,1.4625 -0.315,0.495 -0.945,1.3725 l 0,0.135 q -0.18,0.09 -0.315,0.3375 -0.1125,0.2475 -0.1125,0.495 -0.045,0.0225 -0.18,0.18 -0.1125,0.1575 -0.2025,0.2025 l 0.0225,0.18 q -0.135,0.1125 -0.09,0.18 l -0.27,0.27 -0.1575,0.2025 0.1125,0.1125 q 0,0.1125 -0.2025,0.0675 0,0.1125 0.0225,0.225 l -0.09,0.18 -0.4275,0.0675 q -0.045,0.135 0.045,0.36 0.0225,0.0225 0.045,0.045 0.045,0.0225 0.0225,0.045 -0.0225,0.0225 -0.225,0.135 -0.2025,0.09 -0.2475,0.135 l 0,0.1125 -0.0225,0.2025 q -0.09,-0.0675 -0.135,-0.045 -0.09,0.09 -0.18,0.2475 -0.09,0.1575 -0.135,0.225 l -0.1125,0.09 0,0.3825 -0.405,0.18 q 0.0675,0.1575 0.0675,0.2475 0,0.1125 -0.1575,0.2475 -0.135,0.1125 -0.2925,0.135 l -0.1125,0.2925 0.0675,0.1125 q -0.1125,0.09 -0.18,0.1575 -0.0675,0.045 -0.0675,0.27 l -0.135,-0.0225 q -0.225,0 -0.27,0.18 -0.045,0.1575 0.1125,0.1575 l 0,0.2475 -0.27,-0.045 -0.2025,0.4275 q 0.0225,0.045 0.045,0.0675 l -0.27,0.2475 -0.045,0.2925 -0.09,0.0675 0.0225,0.27 -0.135,-0.0225 q -0.0675,0 -0.0675,0.1125 0.0225,0.09 0.045,0.135 l -0.36,0.27 -0.09,0.315 q 0.1125,0.1125 0.09,0.135 -0.27,0.225 -0.405,0.495 -0.135,0.2475 -0.27,0.6975 l -0.2475,0.1575 q -0.045,0.225 -0.135,0.3825 -0.0675,0.1575 -0.225,0.27 l -0.1575,-0.0225 -0.045,0.1575 q -0.045,0 -0.1575,0.0225 -0.09,0.0225 0,0.2025 l -0.315,-0.09 q 0,0.18 -0.3375,0.2925 -0.315,0.09 -0.495,0.09 -0.0225,0.1125 -0.045,0.135 -0.09,0.135 -0.1575,0.0675 l 0,0.2925 -0.3375,0.045 -0.1575,-0.0675 q -0.1125,-0.2025 -0.225,-0.405 -0.09,-0.225 -0.09,-0.4275 0,-0.0675 0.045,-0.2025 l -0.09,-0.2475 0.1125,-0.2475 -0.135,-0.2925 q 0.09,0 0.09,-0.2025 0,-0.2925 0,-0.585 0.0675,-0.0675 0,-0.1125 -0.0675,-0.0675 -0.09,-0.1125 l 0.045,-0.18 0.0225,-0.2475 0.09,-0.18 q -0.0675,-0.4275 -0.09,-1.1025 -0.0225,-0.675 -0.0225,-0.765 0,-0.495 0,-0.99 0,-0.495 0.0225,-1.0125 0,-0.8325 -0.045,-1.2825 -0.0225,-0.45 -0.1575,-1.0575 -0.225,0.1575 -0.8775,1.35 -0.405,0.7425 -0.7875,1.4625 -0.135,0.18 -0.225,0.2925 -0.18,0.2475 -0.135,0.315 -0.09,0.1125 -0.225,0.3825 -0.135,0.27 -0.27,0.3375 -0.045,0.1575 -0.09,0.27 -0.0225,0.1125 -0.1125,0.1125 l -0.2025,0.1125 q 0.135,0.1125 0.1125,0.18 -0.1575,0.0675 -0.2925,0.315 -0.1125,0.2475 -0.1575,0.4725 l -0.18,0.045 -0.0225,0.3375 -0.18,0.18 0.0675,0.27 q -0.1575,-0.045 -0.225,0.135 -0.045,0.1575 -0.09,0.135 l -0.135,0.3825 0.045,0.135 -0.27,0.1575 -0.045,0.225 -0.09,0 q -0.225,0.315 -0.54,0.54 l 0,0.135 -0.4275,0.2475 q 0.0225,0.09 -0.1125,0.18 -0.0225,0 -0.0675,0.0225 -0.315,0.2475 -0.6525,0.4725 -0.315,0.225 -0.6975,0.36 l -0.495,-0.2475 -0.1575,-0.27 q 0,-0.27 0.1125,-0.5175 0.09,-0.27 0.135,-0.4275 0.2925,-0.6075 0.405,-0.7875 0.1125,-0.2025 0.3375,-0.4725 z" />
          <path
             inkscape:connector-curvature="0"
             id="path3575"
             d="m 307.65805,279.10325 q 0.09,-0.2025 0.2925,-0.4725 0.2025,-0.2925 0.2925,-0.4275 0.2025,-0.2475 0.2925,-0.3825 0.18,-0.2475 0.27,-0.4275 0.0675,-0.0675 0.135,-0.135 l 1.1025,-1.485 q 0.09,-0.09 0.2025,-0.18 0.18,-0.2925 0.405,-0.585 0.315,-0.4275 0.45,-0.45 0.225,-0.3825 0.585,-0.81 0.36,-0.45 0.72,-0.8775 l 0.4275,-0.54 0.1575,-0.045 0.2025,-0.36 q 0.09,-0.045 0.2025,-0.1125 0.225,-0.4725 0.54,-0.8325 l 0.0225,-0.09 q 0.315,-0.2475 0.585,-0.5625 0.2925,-0.3375 0.585,-0.675 0.9225,-0.9225 1.575,-1.7325 0.225,-0.225 0.405,-0.45 0.3375,-0.3825 0.6075,-0.8325 l 0.0675,0.0675 q 0.27,-0.2025 0.6975,-0.315 0.4275,-0.135 0.63,-0.225 l 0.2025,-0.09 0.1575,0 0.045,-0.09 0.54,-0.045 0.2025,0.0675 q 0.0225,0.2025 -0.1125,0.4725 0.045,-0.0225 0.0675,0.0225 0.045,0.0225 0.0675,0.045 l -0.1125,-0.0225 q -0.1575,0.765 -0.315,1.53 -0.27,1.2375 -0.405,1.4175 0.045,0.0225 0.09,0.045 0.0675,0.0225 0.0225,0.1125 l -0.225,0.405 0.1125,0.2925 q -0.045,0.18 -0.1125,0.54 -0.045,0.3375 -0.09,0.63 l -0.18,0.225 0,0.585 -0.09,0 0.0675,0.27 q -0.0675,0.135 -0.1125,0.405 -0.0225,0.2475 -0.045,0.3375 l 0.0675,0.36 -0.1575,0.2025 q 0.0225,0.09 0.045,0.225 0.045,0.135 0.045,0.18 0,0.135 -0.09,0.1575 l 0,-0.09 -0.045,0.045 q 0,0.2025 0.18,0.1575 -0.0225,0.1125 -0.1125,0.8325 -0.0675,0.72 -0.0675,0.7425 0,0.1575 0.0225,0.225 l -0.27,0.18 -0.0225,0.2475 0.2025,-0.045 q 0.1575,0.045 0.09,0.2025 -0.0675,0.1575 -0.1125,0.2025 l 0.2025,0.2025 q 0.045,0.09 -0.09,0.1125 -0.1125,0.0225 -0.1125,0.0675 l 0,0.09 q 0.135,0.09 0.135,0.1575 0,0.045 -0.135,0.0225 l 0.0225,0.2025 q 0.0225,0.225 0.045,0.45 -0.135,0.1575 -0.135,0.27 0,0.09 0.1125,0.1125 0.135,0.0225 0.135,0.135 l -0.0675,0.0225 q 0.0675,0.27 -0.045,0.675 -0.09,0.405 -0.2475,0.72 l -0.2925,-0.045 q -0.0225,0 -0.09,0.135 -0.0675,0.1125 -0.18,0.0675 l -0.1125,0.27 q -0.675,0.36 -1.35,0.72 -0.405,-0.135 -0.6075,-0.675 -0.18,-0.54 -0.18,-1.17 0,-0.2925 0.045,-0.6075 0.045,-0.3375 0.0675,-0.45 0.0225,-0.1125 0.0675,-0.27 0.0675,-0.18 -0.0225,-0.225 l 0,-0.3375 0.135,-0.09 q -0.09,-0.1125 -0.135,-0.09 l 0,-0.9675 -0.315,-0.045 -0.27,0.09 q -0.0675,-0.0675 -0.1125,-0.0675 -0.045,0 -0.09,0.1125 l -0.225,0 q -0.045,-0.045 -0.09,-0.09 -0.09,0.135 -0.27,0.18 -0.18,0.045 -0.2925,0.0675 0.0225,-0.1125 0.0225,-0.135 0,-0.045 0.0225,-0.09 l -0.1125,0 q -0.045,0 -0.1575,0.09 -0.3375,0.2475 -0.7425,0.2475 -0.0675,0 -0.315,0.18 -0.0675,0.045 -0.2475,0.18 l -0.405,-0.225 q -0.1125,0.2025 -0.135,0.315 l -0.3375,0.0675 -0.1575,0 -0.36,0.18 -0.135,0.27 -0.1575,-0.045 -0.18,0.0675 -0.045,0.3375 q -0.1125,0.1575 -0.2925,0.315 -0.1575,0.1575 -0.315,0.225 l -0.045,0.18 0.1575,0 q -0.045,0.1125 -0.09,0.18 -0.045,0.045 -0.09,-0.0225 -0.315,0.27 -0.315,0.6525 -0.2475,0.045 -0.5625,0.27 -0.315,0.225 -0.36,0.4275 l -0.3825,0.3375 q -0.045,0.0225 -0.09,-0.045 -0.045,-0.0675 -0.0225,-0.09 l -1.0575,0.54 -0.4725,0.2925 -0.18,-0.0225 -0.1575,-0.2925 q 0.1125,-0.6075 0.6075,-1.35 0.27,-0.3825 0.54,-0.7875 l 0.0675,-0.045 z m 8.3475,-5.1525 0.1125,-0.045 q 0.2025,-1.26 0.4275,-2.5425 l 0.2025,-0.8325 q -0.135,0.1575 -0.3375,0.2025 -0.1125,0.18 -0.4275,0.5625 -0.2925,0.3825 -0.36,0.63 -0.225,0.1125 -0.3825,0.315 -0.4725,0.63 -0.54,0.675 -0.225,0.495 -0.6525,0.9 -0.1125,0.27 -0.2025,0.5175 0.3825,0 0.7875,-0.09 1.305,-0.2925 1.3725,-0.2925 z" />
        </g>
      </g>
    </g>
    <g
       id="g3190"
       transform="matrix(0.83704106,0,0,0.83704106,54.987587,-160.60833)">
      <path
         inkscape:connector-curvature="0"
         inkscape:original-d="M 96.21703,444.25035 211.12188,460.16025 238.14346,252.5739 127.7843,236.91653 Z"
         inkscape:path-effect="#path-effect3014"
         id="path3012"
         d="M 96.21703,444.25035 211.12188,460.16025 238.14346,252.5739 127.7843,236.91653 96.21703,444.25035 Z"
         style="fill:#ffffff;stroke:#000000;stroke-width:1px;stroke-linecap:butt;stroke-linejoin:miter;stroke-opacity:1"
         sodipodi:nodetypes="ccccc" />
    </g>
    <path
       style="fill:#ffffff;fill-rule:evenodd;stroke:#000000;stroke-width:0.83704108px;stroke-linecap:butt;stroke-linejoin:miter;stroke-opacity:1"
       d="m 667.47501,497.14538 -523.40234,-0.4929 -40.35734,-45.73831 c 0.18493,-13.16795 0.78321,-26.33009 1.79366,-39.46051 0.99429,-12.92035 2.38766,-25.80999 4.17747,-38.64434 l -51.53156,-5.93783 -17.965003,132.02307 46.784616,53.66031 580.996177,-4.7831 -0.49568,-50.62639 z"
       id="path3447"
       inkscape:path-effect="#path-effect3449"
       inkscape:original-d="m 667.47501,497.14538 -523.40234,-0.4929 -40.35734,-45.73831 1.79366,-39.46051 4.17747,-38.64434 -51.53156,-5.93783 -17.965003,132.02307 46.784616,53.66031 580.996177,-4.7831 z"
       inkscape:connector-curvature="0"
       sodipodi:nodetypes="cccccccccc" />
    <g
       id="g3543">
      <path
         sodipodi:nodetypes="ccccc"
         inkscape:connector-curvature="0"
         inkscape:original-d="m 109.03702,411.66243 5.02757,-38.53721 72.14834,8.9154 -5.12866,39.36154 z"
         inkscape:path-effect="#path-effect3391-9"
         id="path3389-7"
         d="m 109.03702,411.66243 5.02757,-38.53721 72.14834,8.9154 -5.12866,39.36154 -72.04725,-9.73973 z"
         style="fill:#ffffff;fill-rule:evenodd;stroke:#000000;stroke-width:0.83704108px;stroke-linecap:butt;stroke-linejoin:miter;stroke-opacity:1" />
      <g
         transform="matrix(0.83704106,0,0,0.83704106,54.987587,-160.60833)"
         id="g3868">
        <g
           id="g3531">
          <g
             id="g3542"
             transform="matrix(-0.94486079,-0.17539152,0.13752826,-0.74088561,521.69645,980.91629)">
            <path
               style="fill:#ffffff;stroke:#000000;stroke-width:1px;stroke-linecap:butt;stroke-linejoin:miter;stroke-opacity:1"
               d="m 465.30617,301.72393 47.1936,-1.54213 0.42872,21.13457 -47.81685,1.07104 0.199,9.45394 -21.95829,-19.53545 21.55732,-19.4507 0.3965,8.86873 z"
               id="path3268-4"
               inkscape:path-effect="#path-effect3270-1-75"
               inkscape:original-d="m 465.30617,301.72393 47.1936,-1.54213 0.42872,21.13457 -47.81685,1.07104 0.199,9.45394 -21.95829,-19.53545 21.55732,-19.4507 z"
               inkscape:connector-curvature="0" />
          </g>
          <g
             transform="matrix(1.1764824,0.20775054,-0.20775054,1.1764824,-117.43053,228.29805)"
             style="font-style:normal;font-variant:normal;font-weight:100;font-stretch:normal;font-size:12.5px;line-height:125%;font-family:'AR BLANCA';-inkscape-font-specification:'AR BLANCA Thin';letter-spacing:0px;word-spacing:0px;fill:#000000;fill-opacity:1;stroke:none;stroke-width:1px;stroke-linecap:butt;stroke-linejoin:miter;stroke-opacity:1"
             id="flowRoot3508">
            <path
               d="m 229.16016,328.38288 q 0.025,0.025 0.0375,0 0.0125,-0.025 0.0125,-0.0375 0.475,-0.775 0.55,-0.9125 0.375,-0.6375 0.5375,-0.925 l 0.2,-0.3125 q 0.025,-0.025 0.15,-0.2 0.1375,-0.1875 0.175,-0.2 0.0375,-0.175 0.225,-0.3125 l -0.025,-0.025 q 0.05,-0.075 0.075,-0.0625 l 0.2125,-0.325 q 0.025,0.0125 0.075,-0.0375 0.0625,-0.0625 0.0375,-0.0875 l 0.15,-0.2 q -0.0875,0.0375 -0.2125,0.05 -0.125,0.0125 -0.2375,0.0125 l 0,-0.05 q -0.05,-0.025 -0.1125,-0.025 -0.0625,-0.0125 -0.0625,-0.125 0.025,-0.0375 0.0625,-0.075 l 0.4625,-0.55 q 0.3125,-0.3125 0.6375,-0.4625 0.3375,-0.15 0.775,-0.1875 0,-0.025 0.0375,-0.0375 0.05,-0.0125 0.0625,0.025 0.525,-0.0625 0.975,-0.0625 l 0.0125,0.05 0.2,0.0125 q 0.0375,-0.05 0.15,-0.05 0.2125,0 0.55,0.125 0.35,0.125 0.4875,0.225 0.0375,0.0125 0.05,0 0.0125,-0.0125 0.025,-0.025 l 0.1125,0.025 0.1875,0.0875 q 0.0375,0.025 0.0875,0.05 0.025,0.0625 0.05,0.1 0.025,0.025 0.05,0 l 0.15,0.125 -0.0125,0.0875 0.0375,0.0875 0.0625,-0.1 q 0.0375,0.0125 0.075,0.025 -0.0125,0.0125 -0.1125,0.0875 0,0.0375 0.0625,0.05 0.0625,0 0.15,0 l 0.05,0.05 -0.05,0.125 0.0875,0 -0.0375,0.175 q 0.05,0.0125 0.1,0.025 0,0.025 -0.025,0.1 0.0375,0.0125 0.0625,0.0125 0.0375,0 0.075,0 l -0.05,0.2375 q 0.075,0.1125 0.0125,0.1375 -0.0625,0.025 -0.0875,-0.025 l -0.125,0.1 q 0.0375,0.025 0.075,0.0375 0.0375,0 0.125,-0.025 l -0.1125,0.175 q 0.025,0.0375 0.0625,0.0625 l -0.075,0.0125 -0.0625,0.1375 q -0.0125,0.0375 0.025,0.1 0,0.0125 0.0375,0.05 l -0.025,0.05 -0.125,0.0375 q 0.075,0.1 0.075,0.175 -0.075,-0.0125 -0.1375,-0.025 -0.075,0 -0.075,0.175 l -0.075,0.025 q -0.0625,0.025 -0.1125,0.05 -0.0375,0.0125 -0.075,0.0125 l 0.0625,0.0625 q 0,0.025 -0.05,0.0625 -0.0375,0.0375 -0.05,0.0625 l -0.2375,0.1125 q 0.025,-0.025 0.05,0 0.025,0.025 0,0.05 l -0.175,0.0125 -0.1375,0.1375 -0.15,0.0375 q -0.05,0.075 -0.0125,0.0875 0.0375,0.0125 0.0625,0.0125 -0.225,0.0875 -0.3375,0.1375 l 0,0.05 q -0.125,0.1125 -0.175,0.1375 -0.0375,0.0125 -0.1375,0.0125 -0.0875,0.025 -0.175,0.0375 -0.0875,0.05 -0.1625,0.125 -0.0625,0.075 -0.05,0.1 l -0.2,-0.05 -0.0875,0.125 q -0.175,0.0375 -0.275,0.0625 -0.0875,0.0125 -0.0875,0.0625 l 0,0.05 -0.125,0.025 q 0.0125,0.025 -0.05,0.05 -0.05,0.025 -0.1125,0.05 -0.1875,0 -0.2375,0.0125 l -0.1,0.1375 -0.125,-0.0375 -0.0625,0.0125 -0.0625,0.175 -0.15,0.0375 -0.1125,-0.0625 -0.05,0.0875 q 0.025,0 0.05,0.0125 0.025,0 0,0.025 -0.0625,0.0125 -0.1625,0.0125 -0.0875,0 -0.175,-0.0125 -0.2,0 -0.2375,0.1 l -0.1375,-0.05 0.025,0.0625 -0.1125,0 q -0.1875,0.075 -0.375,0.1375 -0.125,0 -0.3,0.1 -0.175,0.0875 -0.275,0.1125 l -0.025,0.15 0.0625,0.05 q -0.0375,0.1 -0.0375,0.125 l -0.15,0.025 -0.025,0.1375 0.0625,-0.0125 0.025,0.025 -0.2125,0.1625 0.0125,0.15 q 0.0125,0 0.025,0 0,0.025 0.0125,0.0375 l -0.1125,0.0375 q -0.0125,-0.05 -0.0125,-0.0625 -0.025,0 -0.0375,0 l -0.075,0.1375 0.05,0.05 -0.025,0.0375 0.1125,-0.025 -0.0625,0.0375 -0.1375,0.075 -0.025,0.15 0.0875,0.025 -0.05,0.0125 q -0.05,0.05 -0.075,0.075 -0.1,0.1 -0.1125,0.1125 l 0,0.0875 0.1375,0.0125 0.025,-0.025 -0.0625,0.15 -0.1125,-0.0125 q 0.025,0.075 0.05,0.1375 l -0.1,0 q -0.1,0.0875 -0.1,0.1125 0.0875,0 0.175,0 0,0.075 -0.0125,0.0875 l -0.1125,0 q -0.025,0.0375 -0.0375,0.075 l 0.075,-0.0125 q 0,0.025 -0.075,0.125 -0.0625,0.0875 -0.0625,0.2 l -0.05,0 -0.125,0.025 -0.075,0.175 0.175,-0.025 -0.0125,0.05 -0.1875,0.075 -0.0375,0.15 q 0.05,-0.025 0.0875,-0.0125 0.0375,0.0125 0.0375,0.05 -0.0625,0.025 -0.125,0.0375 -0.0125,-0.025 -0.0125,-0.05 -0.6375,0.375 -0.9625,0.5375 -0.325,0.1625 -0.625,0.25 l -0.15,-0.0875 -0.075,-0.2375 q 0.1625,-0.5875 0.4375,-1.2375 0.375,-0.7875 0.55,-1.2 0.1,-0.275 0.2,-0.475 0.375,-0.7375 0.3875,-0.775 z m 2.2625,-0.575 q 0.075,0 0.1875,-0.0375 0.125,-0.05 0.2375,-0.0875 l 0.025,-0.025 q 0.15,-0.025 0.275,-0.075 0.1375,-0.05 0.175,-0.0875 l 0.0875,0.025 0,-0.0625 q 0.025,0.0125 0.0875,0 0.0625,-0.025 0.0875,-0.05 l 0.0125,0 0.1125,-0.075 q 0.1625,-0.0125 0.425,-0.1625 0.3875,-0.2125 0.4125,-0.225 l 0.075,-0.025 0,-0.05 q 0.425,-0.15 0.6875,-0.4375 0.225,-0.275 0.325,-0.4 0.175,-0.225 0.25,-0.45 l -0.025,-0.025 0,-0.15 q 0,-0.5 -0.5375,-0.7125 -0.2,-0.0875 -0.9875,-0.2125 l -0.05,0.0375 0.075,0.05 -0.0125,0.075 q -0.15,0.0375 -0.2625,0.025 l -0.0375,0.0625 q 0.125,0.0375 0.1625,0.05 l -0.0375,0.0375 -0.1,0 -0.0375,0.025 -0.1125,-0.0625 -0.0625,0.075 0.0875,0.075 0.0625,0.025 0,0.0375 -0.1625,0 -0.0625,0.1 0.05,0.0125 -0.025,0.05 -0.0875,0.075 -0.1,-0.025 0,0.05 0.1,0.075 0.025,0.05 -0.0625,0.0375 -0.1,-0.0125 q 0.075,0.0625 0.05,0.0875 l -0.05,0 q -0.05,0.15 -0.2,0.125 l -0.0375,0.025 -0.0375,0.1375 0.1,-0.05 0.05,0 0.025,0.075 q -0.0125,0.0625 -0.0875,0.0875 -0.0625,0.025 -0.125,0.05 l 0,0.05 q 0.1625,0.0375 0.175,0.0375 l 0.0125,0.0625 q -0.15,0 -0.2375,-0.0875 l -0.025,0.1 -0.1125,0.0125 0,0.05 0.025,-0.025 0.0875,0 -0.0375,0.125 0.0375,0.075 -0.0875,0.1 -0.125,-0.0375 -0.075,0.0375 0,0.0625 0.0375,0.025 0.05,0.1125 -0.0875,0 -0.05,0.0125 0.0125,0.1125 -0.0625,0 -0.05,-0.025 0,0.1125 q -0.025,-0.025 -0.0375,0 -0.0125,0.025 -0.0125,0.0375 l -0.0375,0.0375 0,0.05 -0.025,0.075 0.0875,-0.0875 0.05,0 -0.0375,0.0625 0.025,0.025 0.0625,0 -0.175,0.05 q -0.0375,0.1125 -0.1625,0.1125 l 0,0.0625 0.1125,-0.025 0,0.05 -0.1125,0 -0.0125,0.05 0.0625,0.025 q -0.0375,0.05 -0.1125,0.1375 -0.0625,0.075 -0.1125,0.1125 0.0125,0.0125 0.025,0.0125 l 0.0375,0 -0.0875,0.15 0.125,0.0125 z"
               id="path3517"
               inkscape:connector-curvature="0" />
            <path
               d="m 236.73848,327.49538 0.025,-0.0375 q 0.2,-0.275 0.3,-0.425 0.2125,-0.3 0.25,-0.45 0.0375,0.0125 0.075,-0.05 0.05,-0.0625 0.0125,-0.0875 l 0.5,-0.675 q 0.1375,-0.25 0.3125,-0.5 0.1875,-0.2625 0.375,-0.5125 l 0.0375,-0.1 -0.1125,0 q -0.025,0 -0.075,0.025 -0.05,0.025 -0.0625,0.0375 -0.0125,0 -0.2,0.0625 -0.1875,0.05 -0.2125,0.05 -0.0875,0 -0.1875,-0.05 0.0375,-0.1125 0.125,-0.2125 0.0875,-0.1125 0.225,-0.225 0.475,-0.6125 1.175,-0.85 0.7125,-0.25 1.5875,-0.25 0.0875,0 0.2,0.0125 0.125,0 0.1375,0.025 l 0.15,0 -0.225,0.175 0.0625,0.0375 q 0.025,-0.1 0.0375,-0.1125 0.0625,-0.0625 0.1875,-0.075 0.1375,-0.025 0.2,-0.0375 l 0,0.0625 q -0.0125,0.0125 -0.075,0.025 -0.0625,0.0125 -0.125,0.0375 l 0.075,0.0375 0.125,-0.05 0.05,-0.025 -0.025,0.0875 q 0,0.025 0.075,0.0375 0.075,0.0125 0.075,-0.025 l 0.125,0 0.0375,0.025 q -0.0375,0.0375 -0.0375,0.0625 l 0.05,0.05 0.125,0 0.025,0.05 0.125,-0.0125 0.025,-0.05 0.1375,0.0875 0.0875,-0.0125 q -0.025,0.05 -0.05,0.0875 l 0.05,0.1125 q 0.075,0.025 0.15,-0.0125 0.075,-0.05 0.0875,-0.0375 l 0,0.2 0.15,-0.0125 q 0,0.025 0.0125,0.05 -0.0125,0.0125 -0.05,0.0625 0,0.0625 0.0375,0.0625 0.05,0 0.075,0.0125 l 0,0.05 -0.1125,0.05 q 0.0125,0.0125 0.075,0.0125 l 0.0375,0.025 0.15,0 0.0375,0.3375 -0.05,0.05 -0.0625,-0.05 q 0.0125,0.025 0.0125,0.075 l 0.0875,0.0125 -0.0125,0.2625 q 0.0125,0.075 -0.0125,0.175 -0.0125,0.1 -0.05,0.2 -0.1375,0.0375 -0.1625,0.0625 -0.025,0.0125 -0.0375,0.0375 l 0.15,-0.0125 q 0,0.1125 -0.0625,0.2125 -0.0625,0.0875 -0.1625,0.1625 l -0.0375,0.175 q -0.1125,0.1125 -0.1625,0.1625 -0.1,0.1 -0.1875,0.1125 l 0,0.0625 q -0.1375,0.0625 -0.2125,0.175 l -0.075,0 -0.075,0.2125 -0.0875,-0.025 q -0.05,0.025 -0.0875,0.05 0.0125,0.0125 0.075,0.0625 l -0.0625,0.05 -0.1875,-0.0125 q -0.1,0.05 -0.25,0.175 -0.0625,0.05 -0.2375,0.2125 l -0.1125,-0.025 -0.05,0.1 -0.1875,0.1125 q -0.05,0.025 -0.0875,0.05 l -0.55,0.2375 -0.325,0.125 q 0,0.075 -0.05,0.0625 -0.05,-0.0125 -0.1,-0.0125 l -0.0375,0.075 -0.1,0 q -0.0625,0.025 -0.1375,0.0625 -0.0625,0.025 -0.1,0.0875 -0.025,0.0625 0.05,0.1 0.0125,0 0.05,0.0125 0.05,0.075 0.0125,0.1 -0.0375,0.025 -0.1,0.0375 l 0.1375,0.0625 0.05,-0.0125 0.0625,0.1125 -0.025,0.0625 -0.175,0 -0.0125,0.0375 0.1875,0.0625 q 0,-0.0125 0.0125,-0.025 0.0125,-0.0125 0.0375,-0.0125 l 0.075,0.05 -0.075,0.1 0.1375,0.0375 0.0375,0.0625 q -0.05,0.025 -0.075,0.0125 -0.025,-0.025 -0.0375,-0.0375 0,0.05 0.05,0.0625 0.0625,0 0.0625,0.1 l 0.075,0.0875 -0.0375,0.075 0.0875,0.0875 -0.025,0.1 q 0,0.0375 0.1625,0.0375 0.025,0 0.025,0.1125 l 0.0375,0.0375 q 0.025,0.0375 0.075,0.2125 0.025,0.025 0.05,0.05 l 0.05,0.2625 q -0.1375,0.075 -0.1375,0.15 l 0.0875,0 0.15,-0.075 0,0.075 0.125,0.15 q 0,0.025 -0.0125,0.0375 -0.0125,0.0125 -0.025,0.0125 l 0.075,0.2125 q 0.0375,-0.0125 0.075,0.0375 0.0375,0.0375 0.0375,0.0875 l -0.0375,0.025 q -0.0625,0.375 -0.0625,0.3875 -0.0375,0.0125 -0.075,0.0125 l -0.075,0.1125 -0.075,0.0125 q -0.15,0.1375 -0.3,0.2625 -0.2625,0.2125 -0.55,0.35 0,0.025 0,0.05 -0.0125,0 -0.075,0.0125 -0.2125,0 -0.25,-0.0375 -0.0375,-0.0375 -0.0375,-0.1875 0,-0.275 -0.15,-0.725 -0.15,-0.45 -0.325,-0.75 l 0.075,-0.05 q 0,-0.0375 -0.0375,-0.0375 -0.0375,0 -0.1,0 0.0375,-0.0875 0.025,-0.1375 l -0.1375,-0.175 q 0.0375,0.0375 0.075,-0.025 0,-0.0125 0.0125,-0.05 l -0.0375,0.0125 -0.075,0.025 -0.175,-0.3375 0.0125,-0.1 -0.1625,-0.2625 -0.05,-0.0125 q -0.05,-0.1625 -0.1,-0.325 -0.0875,-0.25 -0.175,-0.25 l -0.2375,0.175 q -0.0625,-0.0125 -0.075,0.0125 0,0.0125 0.0125,0.0875 -0.025,0.0625 -0.025,0.0875 0,0.025 0.0125,0.0375 -0.0375,0.075 -0.05,0.15 -0.0125,0.0625 0.025,0.0625 l 0.025,0.0625 -0.0875,-0.0125 -0.0125,0.05 0.05,0 q 0.0125,0.025 -0.025,0.05 -0.0375,0.025 -0.05,0.0375 -0.0625,0.125 -0.1125,0.2375 l -0.05,0.0375 0,0.1125 -0.0625,0.0375 -0.2,0.1 q 0.075,0 0.1375,0 l 0,0.125 q -0.0375,-0.0125 -0.1,0.0625 -0.0625,0.075 -0.025,0.125 0.0625,-0.0125 0.0625,0.025 l -0.0625,0.0125 q -0.0125,0.0375 -0.0125,0.0625 0,0.0125 0.0125,0.0375 -0.025,0.0375 -0.1125,-0.0125 l -0.0375,0.0125 -0.0375,0.2 q 0.05,0.025 0.075,0 0.025,-0.025 0.0375,-0.0375 l 0.05,0.05 -0.15,0.075 q -0.025,0.1 -0.0125,0.125 l -0.15,0.025 q 0,0.025 0,0.05 0.0875,0.05 0.0875,0.075 l -0.0875,0.0375 -0.0625,0.1875 -0.1125,0.0125 0,-0.05 -0.1,0.025 0.0375,0.0375 -0.0625,0.125 q -0.15,0 -0.175,0.1125 l -0.2125,0.0375 -0.125,0.175 q -0.1375,0.025 -0.4125,0.175 -0.275,0.1625 -0.475,0.1625 -0.0375,0 -0.0875,-0.0375 -0.0625,-0.025 -0.0875,-0.0375 l -0.05,-0.0875 q 0.025,-0.3125 0.1,-0.575 0.0125,-0.05 0.325,-0.9 0.7875,-1.425 1.575,-2.85 z m 2.375,0.0125 0.025,-0.0375 q 0.1,-0.025 0.2,-0.0625 0.1,-0.05 0.175,-0.075 0.0875,-0.0375 0.1,-0.075 l 0.05,0 q 0.1625,-0.0875 0.325,-0.175 0.1625,-0.0875 0.2875,-0.1375 0.5375,-0.225 0.9125,-0.6375 0.4375,-0.475 0.4375,-0.975 0,-0.35 -0.3,-0.6125 -0.2875,-0.275 -0.6625,-0.275 l -0.475,0.0125 q -0.0125,0.0125 -0.125,0.1875 -0.05,0.0875 -0.1875,0.1625 l -0.0375,0.1625 -0.1375,0.25 -0.0875,0.0375 0.0375,0.025 -0.1125,0.1375 0,0.0875 -0.05,0 -0.1375,-0.075 -0.075,0.0625 0.0875,0.0625 0.025,-0.025 0.0375,0.025 0.075,0 -0.1125,0.1625 -0.1,-0.025 0,0.0875 -0.075,0.0375 -0.1,-0.025 -0.025,0.05 0.0375,0.0375 0.1625,0 0,0.05 q -0.025,0.0375 -0.0375,0.05 -0.05,0.0625 -0.075,0.075 l -0.0375,-0.05 -0.125,0.0625 0,0.05 0.1,0 -0.125,0.1 0.025,0.075 0.05,0.0125 -0.0375,0.0375 -0.1125,0.0125 0.0375,0.075 0.05,0 0.05,0.025 0,0.05 -0.1125,0.025 0,0.05 -0.1625,-0.0125 q 0.0125,0.0625 0.0375,0.0875 0.025,0.025 0.0375,0.025 l -0.025,0.0375 -0.0625,0.05 -0.1125,-0.0125 0.0375,0.0375 0.0375,0.0625 q -0.0625,0.0375 -0.15,0.075 -0.0875,0.0375 -0.1625,0.0625 l -0.05,-0.025 -0.025,0.0375 0.0375,0.0375 0.2625,0 0,0.0625 -0.0375,0.0375 -0.0625,0 -0.0875,0.0875 0.025,0.025 q -0.05,0.0875 -0.1,0.2 -0.0375,0.1125 -0.0625,0.25 l 0.025,0.0375 q 0.075,0 0.3875,-0.1 0.3125,-0.1125 0.3875,-0.1375 z"
               id="path3519"
               inkscape:connector-curvature="0" />
            <path
               d="m 243.69473,327.47038 q 0.15,-0.275 0.425,-0.7125 0.375,-0.5875 0.4375,-0.7 l 0.15,-0.2125 0.3125,-0.4625 0.325,-0.5375 q 0.525,-0.7 0.6125,-0.7625 0.1,-0.0625 1.0375,-0.425 l 0.075,0.025 q 0.075,-0.0625 0.1125,-0.0875 0.05,-0.025 0.0625,0.0125 0.0375,-0.0125 0.125,-0.0375 0.1,-0.0375 0.1125,-0.0625 0.1375,0.0375 0.2125,0.175 -0.0625,0.2375 -0.0875,0.3125 -0.1,0.275 -0.2,0.5375 l -0.075,-0.0125 0.0375,0.075 q 0,0.0375 -0.0625,0.0375 -0.05,0 -0.1125,0 l -0.0375,0.0625 0.0125,0.075 0.1625,-0.025 -0.025,0.075 -0.1875,0.0625 q 0,0.0125 0.0125,0.0125 0.025,0 0.075,0.0125 l -0.1,0.1375 q -0.025,0.0125 -0.075,-0.0125 -0.0375,-0.0375 -0.0625,-0.0375 l 0.1375,0.1 -0.1625,0.225 -0.2125,-0.0375 0,0.1375 q 0.025,0 0.05,0 0.0375,0.1 0.0875,0.0625 -0.15,0.1125 -0.2375,0.2875 -0.075,0.1625 -0.1625,0.35 -0.0625,0.0125 -0.05,0.0625 0.0125,0.0375 0.025,0.05 l -0.2125,0.15 -0.05,0.1625 0,0.1875 q -0.05,0.025 -0.075,0.0375 -0.0125,0.0125 -0.025,0.0375 l -0.1125,0.0375 0,0.0625 q -0.125,0.175 -0.2,0.275 -0.1125,0.1625 -0.1875,0.3125 l -0.1125,0.125 q -0.125,-0.0375 -0.125,0.0625 l 0.05,0.1375 0.025,-0.025 0.1125,0 -0.1875,0.1 -0.0625,0.1 0,0.0625 -0.05,0 -0.05,0.05 -0.0375,0.025 q 0.0375,0.0375 0.0375,0.0625 l -0.1,0.0375 -0.05,0.2 -0.275,0.1125 0,0.0625 0.125,0 q 0,0.1625 -0.1,0.2875 l -0.1625,0.0625 q 0,0.025 0.075,0.05 l -0.1125,0.0625 q 0.0125,0.025 -0.0375,0.0625 -0.05,0.0375 -0.0875,0.025 l 0.05,0.2 -0.0875,-0.0125 -0.05,0.0125 -0.05,0.1125 -0.15,-0.0375 -0.0625,0.05 -0.1375,-0.0125 -0.0875,0.0625 0.0375,0.05 q 0.1,-0.0375 0.25,-0.05 0.1625,-0.0125 0.1875,-0.0125 l -0.0625,0.1125 -0.125,-0.025 0,0.0875 0.1125,0 q -0.0625,0.1 -0.125,0.225 -0.125,0.225 -0.15,0.4125 -0.15,0 -0.225,0.1125 0.025,0.0375 0.05,0.0625 l -0.075,0.15 -0.1,-0.0125 -0.075,0.0625 q 0,0.0625 0.0375,0.05 0.05,-0.0125 0.0875,-0.025 l 0,0.075 -0.05,0.05 q -0.0125,-0.0125 -0.025,-0.0375 l -0.125,0.2 q -0.0375,0 -0.0625,0.05 -0.0125,0.0375 -0.0125,0.05 l -0.4125,0.1 q -0.0875,0.0375 -0.1625,0.075 -0.0625,0.0375 -0.075,0.0875 l -0.25,-0.05 -0.1625,0.15 -0.15,0 -0.0875,0.125 -0.0625,0.0875 -0.1125,-0.0625 -0.05,0.0625 -0.0375,-0.025 -0.1875,0.025 q 0.0125,-0.55 0.7,-1.8375 0.4375,-0.7625 0.5625,-0.9875 0.2,-0.3 0.4,-0.6875 0.125,-0.2375 0.35,-0.7125 z"
               id="path3521"
               inkscape:connector-curvature="0" />
            <path
               d="m 246.86953,329.50788 0.3375,-0.325 q 0.075,-0.075 0.2125,-0.2 0.15,-0.1375 0.25,-0.25 l 0.075,-0.075 q 0.4625,-0.4125 0.5875,-0.5375 0.2125,-0.2 0.5625,-0.5625 l 0.075,0 0.225,-0.2 0.025,-0.0375 0.2375,-0.2375 q 0.025,0.0125 0.05,-0.0125 0.0375,-0.0375 0.0625,-0.025 l 0.05,-0.1125 q 0.2625,-0.2375 0.5375,-0.475 0.1625,-0.1375 0.325,-0.2625 0.05,-0.05 0.1,-0.1125 0.275,-0.2 0.7125,-0.5875 0.6625,-0.6 0.675,-0.6125 0.025,-0.0125 0.025,-0.0125 0.0125,-0.0125 0.025,-0.0375 0.0625,-0.0375 0.125,-0.0875 0.0625,-0.05 0.0625,-0.1125 -0.1625,-0.025 -0.2,0.075 -0.1875,0.1 -0.3625,0.2 l 0.0125,-0.0375 0.025,-0.0625 -0.075,-0.05 0.0625,-0.0625 -0.025,-0.0375 -0.3625,0.1625 -0.125,-0.0375 q -0.0375,0 -0.125,0.0375 -0.0875,0.0375 -0.2375,0.1125 l -0.0375,0.025 q 0,-0.0125 0,-0.025 0.0125,-0.025 0.0625,-0.0625 l -0.0375,-0.05 -0.225,0.0875 -0.025,-0.025 q -0.125,0.0375 -0.2375,0.075 -0.025,0 -0.0375,0 l -0.1375,-0.0625 q -0.05,0.1125 -0.0625,0.1125 l -0.4375,0.075 -0.1,-0.0375 -0.1125,0.0625 -0.0375,-0.025 -0.375,0.0375 -0.1625,-0.05 0.075,-0.15 0.025,-0.0625 0.175,-0.2625 0.25,-0.2875 -0.0125,-0.05 0.025,-0.075 q 0.4375,-0.175 1.025,-0.275 0.5875,-0.1125 1.15,-0.2125 0.15,-0.0375 0.35,-0.0375 0.15,0 0.3,0.025 0.025,-0.0375 0.075,-0.0375 0.0625,0 0.1125,0.0125 0,-0.05 0.1625,-0.05 0.175,0 0.25,0.0375 0,-0.0625 0.075,-0.0375 0.075,0.0125 0.0875,-0.025 l 0.2375,0 q 0.0375,0 0.0875,-0.0125 l 0.05,0 0.2,0 0,0.05 0.15,0.025 0.0625,-0.075 0.15,0 0.025,0.0625 0.1625,-0.05 0.1125,0.075 -0.0375,0.0375 0.05,0.1125 0.05,-0.025 0.1625,0.125 -0.075,0.1 q 0.05,0.025 0.025,0.0625 -0.025,0.0375 -0.075,0.025 l 0.0125,0.175 q -0.05,0.1375 -0.075,0.1625 -0.0375,-0.0125 -0.075,-0.025 -0.1,0.125 -0.2375,0.1625 -0.025,0.0875 0.0375,0.1125 l -0.3,0.1125 0.15,0.0875 -0.0625,0.025 q -0.1625,0.075 -0.3125,0.1375 l 0.025,0.175 q -0.0625,-0.0125 -0.1,-0.025 -0.025,-0.0125 -0.05,-0.0125 0,0.0875 0,0.1625 -0.05,-0.025 -0.075,-0.025 -0.0125,-0.0125 -0.0625,-0.0375 l -0.05,0.0125 q -0.125,0.1 -0.15,0.15 l 0.075,0.1 -0.075,0.1 -0.225,0.0125 -0.0125,0.0375 0.125,0 -0.1625,0.05 0,0.05 0.0375,0.0375 -0.075,0.0625 q -0.1625,0.025 -0.2375,0.1375 l 0.0125,0.05 -0.2125,0.05 0,0.075 -0.1125,0.1 0.15,-0.05 -0.1625,0.0875 -0.05,-0.0125 0.0375,0.125 -0.1125,0 -0.1125,0.175 -0.225,-0.0375 q -0.0375,0.075 -0.0625,0.1375 l 0.1125,0.025 -0.025,0.0625 -0.15,-0.0125 q 0.05,0.0625 0.05,0.1125 0,0.0375 -0.0625,0.075 -0.05,0.0375 -0.0875,0 l -0.075,-0.1 q -0.025,0 -0.05,0.05 -0.025,0.05 -0.05,0.1 l 0.125,0 -0.2,0.075 -0.1125,-0.0375 0,0.0625 0.125,0 0,0.1375 -0.175,0.025 -0.075,-0.025 0,0.0625 0.05,0 -0.05,0.1 -0.15,0.025 q 0.0125,0.0625 -0.05,0.1 -0.05,0.025 -0.05,0.05 l -0.1125,0.05 -0.025,0.1375 q -0.0125,0.025 -0.025,0.0375 -0.0125,0 -0.0625,0 -0.0375,0 -0.1375,0.05 -0.1,0.05 -0.15,0.05 l 0,0.125 0.0375,0.0375 q 0,0.025 -0.0375,0.025 -0.0375,0 -0.1,0 l -0.0875,0.0875 0.0375,0.1875 -0.1125,0.0375 -0.05,-0.05 -0.075,0 q 0.0125,0.025 0.0375,0.05 0,0.075 -0.075,0.0625 -0.075,-0.0125 -0.1375,-0.0375 -0.05,0.0125 -0.05,0.15 0.025,0 0.0625,-0.0125 l 0.125,-0.025 0.0125,0.0375 q 0,0.075 -0.0875,0.075 -0.15,-0.0375 -0.2125,-0.0375 -0.05,0 -0.05,0.05 0,0.0375 0.05,0.1375 l 0.1,0.075 0.1,-0.0125 -0.025,0.025 -0.15,-0.0125 -0.1875,0.075 -0.0375,0.1125 q -0.0625,0.025 -0.0875,0.05 -0.025,-0.0125 -0.0375,-0.0625 -0.0125,-0.05 -0.05,-0.05 -0.0375,0 -0.0375,0.15 l 0.0375,0.0875 -0.1,0.1 -0.0875,-0.0125 0.05,0.05 q 0.0125,0.075 0.025,0.0875 0.05,0 0.05,0.025 l -0.0625,0.0375 -0.125,-0.1 -0.1125,0.1 0.0125,0.075 -0.0875,0.0125 q -0.0875,0 -0.0875,0.05 0.0125,0.0375 0.0375,0.1 l -0.2625,0.1125 0.1375,0 q 0.0125,0.05 -0.0875,0.1 -0.0875,0.0375 -0.15,0.025 l -0.075,0.15 q 0.025,0.0625 0.0625,0.125 l 0.1125,-0.025 q 0.2375,-0.0625 0.575,-0.0625 0.0125,-0.0625 0.0625,-0.0625 0.0625,0 0.05,0.0375 l 0.1625,-0.0625 q 0.225,-0.025 0.4375,-0.0375 0.2125,-0.0125 0.3375,-0.05 l 0.1375,0.075 q 0.025,-0.0375 0.0625,-0.075 l 0.1625,-0.025 q 0.0125,0.0375 0.0375,0.075 0.0625,-0.025 0.0125,-0.075 l 0.125,0 0.1,-0.0125 0.3625,-0.075 q 0.05,0.025 0.1125,0.05 0.1125,-0.0375 0.15,-0.05 0.0375,0.0125 0.075,0.025 l 0.1125,0.025 -0.0125,-0.0375 -0.05,-0.025 q 0.0375,-0.0125 0.1375,0.05 0.1,0.0625 0.1,0.1125 l -0.05,0 -0.0375,0.0375 0.0375,0.15 -0.05,0.0875 -0.125,0 q -0.025,0.0125 -0.0625,0.05 -0.025,0.0375 0,0.0625 -0.1375,0.0875 -0.1375,0.2 l -0.1375,0.05 q 0.0125,0.0875 -0.0625,0.175 -0.075,0.0875 -0.1375,0.1625 -0.075,0.025 -0.1625,-0.05 -0.0125,-0.0125 -0.025,-0.0375 0,0.0875 -0.1,0.0875 -0.0375,0 -0.1375,-0.0375 l -0.15,0.075 -0.2,-0.0625 q -0.075,0 -0.2,0.0375 -0.1125,0.025 -0.1375,0.025 l -0.125,0.0375 0,0.05 -0.05,0 0.0125,-0.0375 q -0.05,0.0125 -0.325,0.0625 -0.275,0.0375 -0.375,0.0375 -0.2375,0.1375 -0.475,0.1375 -0.0875,0.025 -0.0875,0.05 l -0.15,-0.0125 q -0.2625,0.15 -0.5875,0.2125 -0.1,0.0125 -0.2125,0.0375 -0.1125,0.0125 -0.1375,0.05 -0.0625,0 -0.2125,0.025 -0.15,0.025 -0.1625,0.025 -0.0625,0 -0.225,-0.025 -0.15,-0.025 -0.1625,-0.025 -0.1125,-0.1125 -0.225,-0.225 -0.1125,-0.125 -0.1875,-0.25 l 0.0125,-0.2625 -0.075,-0.1375 q 0.075,-0.3875 0.45,-0.825 0.2,-0.225 0.4,-0.45 0.025,0 0.0625,0 0,-0.0125 0.0125,-0.075 z"
               id="path3523"
               inkscape:connector-curvature="0" />
            <path
               d="m 252.72793,330.88288 0.025,-0.125 q 0.075,0.0125 0.075,-0.15 l 0.3125,-0.5875 0,-0.075 q 0.05,-0.075 0.1,-0.2 0.05,-0.1375 0.075,-0.25 0.0375,-0.0125 0.1875,-0.325 0.0625,-0.125 0.175,-0.4 l 0.075,-0.025 0,-0.15 q 0.0125,-0.025 0.0625,-0.025 0.025,-0.025 0.0125,-0.1125 l 0.15,-0.175 q -0.025,0.0125 -0.05,-0.0375 l 0.0875,0 -0.0625,-0.075 0.1,-0.05 -0.0125,-0.05 q 0.0125,-0.0625 0.0375,-0.125 l 0.05,0 q 0.075,0.0125 0.1,-0.0875 0,-0.0625 0.0875,-0.1875 0.1,-0.1375 0.1,-0.175 0.0625,-0.075 0.05,-0.125 l 0.175,-0.0625 q -0.025,-0.05 -0.05,-0.1125 l -0.05,0 q 0,-0.0375 0.05,-0.05 0.05,-0.0125 0.1125,-0.025 l -0.0125,-0.0375 -0.025,-0.075 q 0.0875,-0.0875 0.1625,-0.25 0.0875,-0.1625 0.1625,-0.3125 0.225,-0.3375 0.4625,-0.6875 l 0.075,0 q 0,-0.125 0.1625,-0.3875 0.1625,-0.2625 0.1625,-0.275 l -0.0875,-0.0375 q -0.1875,0.0625 -0.425,0.0625 l -0.025,-0.1125 q 0,-0.425 0.525,-0.925 0.5375,-0.5125 0.9375,-0.45 0.0375,-0.025 0.0875,-0.05 0.0625,-0.025 0.1375,-0.05 l 0.175,-0.025 0.05,0.05 0.1,-0.125 0.1,0.1 0.075,0 0.0375,-0.0875 0.05,0.0125 q 0.025,-0.05 0.0375,-0.0875 0.025,-0.0375 0.0625,-0.0125 0.025,0.0375 0.0625,0.075 0,-0.075 0.0875,-0.075 0.025,0 0.05,0.0125 0.025,0 0.05,0.0125 l 0.05,0 q 0.1375,-0.1375 0.3,-0.1375 0.0125,0 0.1125,-0.025 0.0125,0.0125 0.025,0.025 l -0.125,0.075 0.1875,-0.0875 -0.0125,-0.05 0.0875,0.05 q 0.0375,0.0125 0.1,-0.025 0.075,-0.0375 0.1125,-0.0375 l 0.0875,0.075 0,-0.05 0.15,-0.0875 0.05,0.0125 0.05,0.125 0.0625,0 -0.0125,-0.05 0.0125,-0.075 q 0.05,0 0.0625,0 0,0.025 0,0.0375 0.15,0.0125 0.425,-0.0625 0.275,-0.075 0.325,-0.075 0.0625,0 0.05,0.0375 0,0.025 0,0.0625 l 0.075,0.075 -0.0125,-0.075 q 0.0125,-0.025 0.05,-0.05 0.0375,-0.0375 0.1125,-0.0625 l 0.25,0.0375 q 0.125,-0.025 0.1875,-0.0375 0.175,-0.05 0.2375,-0.075 0.075,0.0375 0.1625,0.0875 0.1,0.0375 0.1,0.075 l -0.2875,0.3 q 0.025,0.025 -0.0125,0.05 -0.0375,0.025 -0.05,0.025 l -0.0375,0.1125 -0.2,0.1125 q 0,0.1 -0.175,0.275 -0.025,0.0375 -0.2875,0.2625 l -0.0375,-0.0125 q -0.075,0.0375 -0.0625,0.0625 -0.725,0.1 -1.4375,0.1875 -0.95,0.1875 -1.15,0.575 l -0.1625,0.2375 -0.05,0.0125 q -0.0125,0.075 -0.0375,0.1125 -0.0625,0.0875 -0.125,0.175 l 0.025,0.0875 -0.075,0 -0.1,0.1125 q 0.0125,0.0375 0.025,0.0625 -0.025,0.05 -0.05,0.0875 l -0.2625,0.375 q -0.1125,0 -0.1625,0 l -0.025,0.05 q 0,0.0375 0.05,0.0375 0.05,0 0.1,0 l -0.025,0.1 0.2125,0 q 0.125,-0.0375 0.225,-0.0625 0.1125,-0.025 0.225,-0.025 0.0375,0.025 0.0625,0 0.025,-0.025 0.0125,-0.0625 0.15,-0.0125 0.3125,-0.0375 0.1625,-0.0375 0.2875,-0.1 0.075,0.025 0.1625,0.0125 0.0875,-0.025 0.0875,0.0125 l 0.1125,-0.025 0.2125,-0.05 0.05,0.0625 q 0.0625,-0.0375 0.1625,-0.0625 0.1,-0.0375 0.1125,0.025 l 0.175,-0.05 0.2375,0.05 0.025,0.1625 q -0.05,0.075 -0.2,0.2125 -0.15,0.1375 -0.175,0.2 -0.1875,0.1 -0.3625,0.3125 -0.175,0.2 -0.3375,0.3875 l -0.425,0.1 0,-0.05 q -0.0375,0.025 -0.0625,0.0375 l -0.4,0.0375 q 0,-0.0125 0,-0.0375 -0.0125,0 -0.075,0.05 l -0.1375,0 -0.025,-0.0375 -0.1375,0.075 q -0.0625,0.025 -0.0875,0 -0.025,-0.025 -0.025,-0.0375 l -0.1125,0.075 q -0.1125,0.025 -0.175,0.025 l -0.775,0.2875 0,0.05 -0.075,0.1 q -0.05,0.0375 -0.0875,0.0625 l -0.15,0 0,0.05 0.15,0.0375 q 0,0.1125 -0.0625,0.1125 -0.1375,-0.05 -0.1875,-0.05 l 0,0.1 0.15,0.0875 -0.075,-0.0125 q -0.05,0 -0.125,0.0625 -0.075,0.0625 -0.075,0.125 l 0.0875,-0.1 q 0.0125,-0.0125 0.1125,-0.025 l -0.0125,0.0375 -0.0125,0.05 -0.05,0.0375 -0.1125,0.1625 q -0.0125,0.025 0,0.0375 0.025,0.0125 0.0625,0.0125 l -0.0375,0.0375 -0.025,0.0875 -0.0625,0.0125 q -0.0375,0.1625 -0.1,0.1375 l -0.0375,0.1375 0.05,0 q -0.05,0.1125 -0.075,0.175 -0.0625,0.1375 -0.1,0.1625 -0.05,-0.025 -0.1,-0.0625 l -0.1125,0.075 0.0375,0.0625 0.1125,-0.0625 0,0.2125 -0.1,0.0625 -0.0125,0.175 q -0.0875,-0.0125 -0.0875,0.1375 0.05,0.0375 0.075,0.05 0.1,0.0625 0.1375,0.0625 l -0.025,-0.075 q 0.0375,0.0125 0.0875,0.025 0.0375,-0.075 0.075,-0.075 0.0875,0.0375 0.175,0.075 -0.025,-0.0375 -0.05,-0.075 0.05,-0.0625 0.0375,-0.075 0.1125,0.0125 0.2125,-0.025 0.1,-0.05 0.1125,-0.05 l 0.075,0.025 0.1375,-0.05 q 0.0625,0 0.1,0 0.1125,-0.0375 0.1625,-0.05 0.25,0.025 0.35,0.025 l -0.0375,-0.0375 q 0.1,-0.075 0.175,-0.075 0.0625,0 0.0625,0.0875 l 0.025,-0.0625 0.1625,-0.075 0.075,0.15 0.025,-0.1 0.1375,-0.025 q -0.0125,-0.0375 0.025,-0.05 0.05,-0.0125 0.15,-0.0125 0.1375,0.0125 0.1625,0.0125 l 0.025,-0.025 q 0.1875,-0.0375 0.2375,-0.0375 0.0625,-0.0125 0.2,-0.0125 0.0375,0 0.1,0.05 0.075,0.0375 0.0875,0.05 l -0.0125,0.225 -0.1125,0.05 q 0,0.0125 0.0375,0.025 0.0375,0.0125 0.0375,0.05 l -0.0375,0.025 -0.0125,0.1375 q -0.2,0.025 -0.3125,0.15 l 0.0125,0.05 q -0.0625,0.075 -0.125,0.1375 -0.1125,0.1125 -0.1625,0.1 l -0.125,0.1875 q -0.5125,0.2375 -1.5875,0.45 -1.3375,0.2625 -1.625,0.35 -0.1125,0.05 -0.35,0.125 -0.2375,0.075 -0.25,0.075 -0.35,0 -0.525,-0.4375 -0.0625,-0.175 -0.1125,-0.4125 l 0.0875,-0.2 -0.0125,-0.1 z"
               id="path3525"
               inkscape:connector-curvature="0" />
            <path
               d="m 258.49102,331.49538 q 0.1125,-0.1875 0.825,-1.2875 0.3375,-0.525 0.5,-0.7875 l 0.025,-0.025 0.5,-0.8625 0.4,-0.75 q 0.9625,-1.8875 1.9375,-3.7875 l 0.025,-0.025 q 0.2,-0.1375 0.35,-0.2 0.15,-0.0625 0.25,-0.0625 0.075,-0.125 0.2875,-0.1875 0.2125,-0.075 0.4,-0.075 l 0.3125,0.15 q 0.1875,0.3 0.2625,0.5875 0.0875,0.2875 0.0875,0.625 0,0.35 -0.1,1.025 -0.0875,0.6625 -0.0875,0.925 l -0.0625,0.075 q 0,0.125 -0.0375,0.35 -0.0375,0.225 -0.0375,0.325 l -0.05,0.0125 0.0125,0.0875 -0.1,0.1875 0.0625,0 -0.025,0.1625 q 0.0625,-0.0625 0.0875,-0.05 0.775,-0.8875 1.1875,-1.3375 0.7625,-0.8375 1.55,-1.6125 0.875,-0.8625 1.2625,-1.075 0.1,0.0125 0.35,-0.1375 0.175,-0.1 0.35,-0.2125 l 0.0625,-0.0125 0.2,-0.1 0.0625,0.05 0.125,-0.1125 0.15,-0.0375 q 0.025,0.025 0.0375,0.0125 0.0375,0.075 0.05,0.2 0.025,0.1125 0.05,0.275 -0.025,0.0625 -0.0875,0.075 -0.05,0.0125 -0.0625,0.025 0.0625,0.0375 0.0625,0.0625 -0.025,0.0625 -0.1125,0.1875 -0.075,0.125 -0.075,0.25 l -0.05,0.075 0.0375,0.025 -0.2125,0.225 q -0.025,0.0375 0,0.05 0.0375,0 0.0875,0 l -0.2,0.1125 0.0625,0.0875 -0.1875,0.175 0.0875,0.025 -0.175,0.0625 0.0125,0.1125 0.0375,0.0125 q -0.05,0.0625 -0.0875,0.1125 l -0.1,0.1125 0,0.1125 q -0.0875,0.075 -0.125,0.1125 -0.125,0.1375 -0.125,0.25 0,0.1125 -0.025,0.15 -0.0125,0.0375 -0.05,0 l -0.15,0.2 q 0.0875,0.0125 0.0875,0.0375 0,0.1125 -0.1125,0.1625 -0.1,0.0375 -0.2125,0.0375 -0.025,0.0375 -0.05,0.0625 l 0.075,0.0125 -0.075,0.0375 0,0.0625 0.125,-0.025 q -0.025,0.175 -0.175,0.2875 l -0.0875,0 0,0.15 q 0.0625,0.025 0.0875,0.025 -0.0375,0.075 -0.0625,0.1125 -0.0125,0.0375 -0.05,0.1125 l -0.1375,0.0375 0.0875,0.05 -0.0125,0.0625 -0.175,0.05 0.1125,0.125 -0.125,0.225 -0.075,0.0375 -0.0375,0.0875 q 0.075,0.0375 0.1125,0.0625 l -0.1625,0.15 -0.025,0.1375 -0.125,-0.025 -0.0125,0.075 0.2,0.1375 q 0,0.0375 -0.1,0.0375 l -0.0625,0.1125 q -0.025,-0.025 -0.05,-0.05 l 0.0125,-0.0375 q -0.1,0.1625 -0.2,0.325 l 0,0.1625 -0.1,-0.0125 -0.125,0.1375 0.125,-0.05 q -0.025,0.2125 -0.1125,0.3875 -0.0875,0.1625 -0.1125,0.225 -0.0625,0.1625 -0.0625,0.2625 0,0.0625 0.0375,0.1 l -0.125,0.3625 q -0.0625,0 -0.0625,0.05 0.0125,0.05 0.0375,0.1 l -0.225,0.05 q -0.025,0.0125 -0.0625,0.1375 -0.0375,0.125 -0.0875,0.1375 l -0.225,-0.0125 -0.0375,-0.0375 0,0.15 q -0.025,0 -0.05,0 0,0.0125 0,0.05 l -0.1,0.05 0,-0.0625 q -0.05,0 -0.1625,0.1125 -0.1,0.1125 -0.1875,0.2 l 0,0.075 -0.325,0.1 q -0.1125,-0.05 -0.2125,-0.175 l -0.05,0 -0.025,-0.2 q 0,-0.2875 0.2375,-1.15 0.2375,-0.8625 0.3625,-1.1625 l 0.0625,-0.0125 -0.0125,-0.075 q 0,-0.0875 0.075,-0.2 0.075,-0.125 0.05,-0.2125 -0.0125,-0.0875 0.025,-0.075 0.0375,0 0.1,0.025 l -0.075,-0.1 q 0.0625,-0.0875 0.0875,-0.1375 0.0875,-0.1625 0.0875,-0.2375 0,-0.05 0.0875,-0.25 0.0875,-0.2 0.2,-0.425 l -0.025,0 q -0.275,0.2625 -0.55,0.525 -0.0625,0.15 -0.2125,0.2625 -0.15,0.1 -0.1625,0.125 -0.0125,0.025 -0.0125,0.05 0,0.025 -0.0125,0.1 l -0.15,0.05 0,0.0875 q -0.05,0.0375 -0.3,0.3125 -0.25,0.275 -0.25,0.3125 l -0.05,0.0375 q -0.1875,0.25 -0.2125,0.2875 -0.125,0.1875 -0.1625,0.3125 -0.1125,0.0375 -0.2125,0.225 -0.0875,0.175 -0.0875,0.3 l -0.1,0.05 q -0.05,0.1 -0.025,0.125 0.025,0.0125 0.125,0.0125 l -0.0125,0.0625 -0.1875,0.0125 q 0.0125,0.05 0.025,0.075 0.0125,0.025 0.05,0.075 l -0.05,0 -0.1125,0.05 0.025,0.1375 q -0.175,0.125 -0.2625,0.175 -0.1625,0.1125 -0.225,0.225 l -0.1875,0 -0.15,0.1125 -0.2125,0 0.025,0.075 -0.075,-0.0375 q -0.0375,-0.025 -0.0625,-0.0125 -0.025,0 -0.1,0.0625 -0.0625,0.05 -0.125,0.0875 -0.0625,0.025 -0.1375,0.025 -0.075,-0.0125 -0.1125,-0.0375 -0.025,-0.025 -0.0625,-0.075 l -0.1125,-0.175 q 0.2625,-0.7625 0.525,-1.6125 0.275,-0.85 0.4375,-1.675 0.175,-0.825 0.175,-1.525 l -0.075,0.1625 q -0.1125,0.0125 -0.125,0.0625 0,0.05 0,0.1125 0,0.05 -0.125,0.1625 -0.1125,0.1 -0.0625,0.175 -0.2125,0.15 -0.1875,0.3625 l -0.1625,0.05 q -0.0125,0.0375 0.0875,0.1 l -0.1875,0.1875 0.0375,0.1125 q -0.1625,0.1625 -0.2,0.2375 -0.025,0.0625 -0.025,0.225 l -0.05,0 -0.1375,0.1 0.0875,0.025 0,0.1 -0.075,0.0125 q -0.075,0.125 -0.2125,0.325 -0.2125,0.2875 -0.2375,0.325 l 0.0125,0.075 q -0.075,0.05 -0.1125,0.1 -0.025,0.0375 -0.05,0.1 -0.1,0.225 -0.2875,0.375 -0.025,0.15 -0.3875,0.6625 -0.25,0.35 -0.5,0.65 l -0.05,-0.0125 -0.05,0.0625 q -0.1125,0 -0.1625,0 -0.075,0 -0.1125,0.025 l 0,0.0625 -0.2,0.2625 -0.05,0.0875 -0.1125,-0.075 0.0625,-0.0625 -0.05,-0.0125 q -0.0375,0 -0.0875,0.1 -0.05,0.1 -0.075,0.1 -0.2,0 -0.3125,-0.05 -0.1125,-0.0375 -0.225,-0.1875 l 0.0875,-0.1875 z"
               id="path3527"
               inkscape:connector-curvature="0" />
            <path
               d="m 270.01309,327.47038 q 0.15,-0.275 0.425,-0.7125 0.375,-0.5875 0.4375,-0.7 l 0.15,-0.2125 0.3125,-0.4625 0.325,-0.5375 q 0.525,-0.7 0.6125,-0.7625 0.1,-0.0625 1.0375,-0.425 l 0.075,0.025 q 0.075,-0.0625 0.1125,-0.0875 0.05,-0.025 0.0625,0.0125 0.0375,-0.0125 0.125,-0.0375 0.1,-0.0375 0.1125,-0.0625 0.1375,0.0375 0.2125,0.175 -0.0625,0.2375 -0.0875,0.3125 -0.1,0.275 -0.2,0.5375 l -0.075,-0.0125 0.0375,0.075 q 0,0.0375 -0.0625,0.0375 -0.05,0 -0.1125,0 l -0.0375,0.0625 0.0125,0.075 0.1625,-0.025 -0.025,0.075 -0.1875,0.0625 q 0,0.0125 0.0125,0.0125 0.025,0 0.075,0.0125 l -0.1,0.1375 q -0.025,0.0125 -0.075,-0.0125 -0.0375,-0.0375 -0.0625,-0.0375 l 0.1375,0.1 -0.1625,0.225 -0.2125,-0.0375 0,0.1375 q 0.025,0 0.05,0 0.0375,0.1 0.0875,0.0625 -0.15,0.1125 -0.2375,0.2875 -0.075,0.1625 -0.1625,0.35 -0.0625,0.0125 -0.05,0.0625 0.0125,0.0375 0.025,0.05 l -0.2125,0.15 -0.05,0.1625 0,0.1875 q -0.05,0.025 -0.075,0.0375 -0.0125,0.0125 -0.025,0.0375 l -0.1125,0.0375 0,0.0625 q -0.125,0.175 -0.2,0.275 -0.1125,0.1625 -0.1875,0.3125 l -0.1125,0.125 q -0.125,-0.0375 -0.125,0.0625 l 0.05,0.1375 0.025,-0.025 0.1125,0 -0.1875,0.1 -0.0625,0.1 0,0.0625 -0.05,0 -0.05,0.05 -0.0375,0.025 q 0.0375,0.0375 0.0375,0.0625 l -0.1,0.0375 -0.05,0.2 -0.275,0.1125 0,0.0625 0.125,0 q 0,0.1625 -0.1,0.2875 l -0.1625,0.0625 q 0,0.025 0.075,0.05 l -0.1125,0.0625 q 0.0125,0.025 -0.0375,0.0625 -0.05,0.0375 -0.0875,0.025 l 0.05,0.2 -0.0875,-0.0125 -0.05,0.0125 -0.05,0.1125 -0.15,-0.0375 -0.0625,0.05 -0.1375,-0.0125 -0.0875,0.0625 0.0375,0.05 q 0.1,-0.0375 0.25,-0.05 0.1625,-0.0125 0.1875,-0.0125 l -0.0625,0.1125 -0.125,-0.025 0,0.0875 0.1125,0 q -0.0625,0.1 -0.125,0.225 -0.125,0.225 -0.15,0.4125 -0.15,0 -0.225,0.1125 0.025,0.0375 0.05,0.0625 l -0.075,0.15 -0.1,-0.0125 -0.075,0.0625 q 0,0.0625 0.0375,0.05 0.05,-0.0125 0.0875,-0.025 l 0,0.075 -0.05,0.05 q -0.0125,-0.0125 -0.025,-0.0375 l -0.125,0.2 q -0.0375,0 -0.0625,0.05 -0.0125,0.0375 -0.0125,0.05 l -0.4125,0.1 q -0.0875,0.0375 -0.1625,0.075 -0.0625,0.0375 -0.075,0.0875 l -0.25,-0.05 -0.1625,0.15 -0.15,0 -0.0875,0.125 -0.0625,0.0875 -0.1125,-0.0625 -0.05,0.0625 -0.0375,-0.025 -0.1875,0.025 q 0.0125,-0.55 0.7,-1.8375 0.4375,-0.7625 0.5625,-0.9875 0.2,-0.3 0.4,-0.6875 0.125,-0.2375 0.35,-0.7125 z"
               id="path3529"
               inkscape:connector-curvature="0" />
          </g>
        </g>
      </g>
    </g>
    <path
       style="fill:#ffffff;fill-rule:evenodd;stroke:#000000;stroke-width:1px;stroke-linecap:butt;stroke-linejoin:miter;stroke-opacity:1"
       d="M 59.093924,362.42799 109.34901,369.24652 157.5838,36.148722 105.3084,28.067502 59.093924,362.42799 Z"
       id="path3586"
       inkscape:path-effect="#path-effect3588"
       inkscape:original-d="m 59.093924,362.42799 50.255086,6.81853 48.23479,-333.097798 -52.2754,-8.08122 z"
       inkscape:connector-curvature="0" />
    <path
       style="fill:#ffffff;fill-rule:evenodd;stroke:#000000;stroke-width:1px;stroke-linecap:butt;stroke-linejoin:miter;stroke-opacity:1"
       d="m 228.57143,399.86218 -28.57143,65 -1.78571,27.85715 110,-0.35715 2.14285,-92.5 -81.78571,0 z"
       id="path3590"
       inkscape:path-effect="#path-effect3592"
       inkscape:original-d="m 228.57143,399.86218 -28.57143,65 -1.78571,27.85715 110,-0.35715 2.14285,-92.5 z"
       inkscape:connector-curvature="0" />
    <g
       id="g3639">
      <path
         sodipodi:nodetypes="ccccc"
         inkscape:connector-curvature="0"
         inkscape:original-d="m 312.5,491.6479 2.43872,-90.67096 107.35207,-1.32396 -0.50508,92.77048 z"
         inkscape:path-effect="#path-effect3596"
         id="path3594"
         d="m 312.5,491.6479 2.43872,-90.67096 107.35207,-1.32396 -0.50508,92.77048 L 312.5,491.6479 Z"
         style="fill:#ffffff;fill-rule:evenodd;stroke:#000000;stroke-width:1px;stroke-linecap:butt;stroke-linejoin:miter;stroke-opacity:1" />
    </g>
    <path
       style="fill:#ffffff;fill-rule:evenodd;stroke:#000000;stroke-width:1px;stroke-linecap:butt;stroke-linejoin:miter;stroke-opacity:1"
       d="m 425,492.00504 0.90555,-92.24746 111.61983,-0.56636 L 540,492.71933 425,492.00504 Z"
       id="path3598"
       inkscape:path-effect="#path-effect3600"
       inkscape:original-d="m 425,492.00504 0.90555,-92.24746 111.61983,-0.56636 L 540,492.71933 Z"
       inkscape:connector-curvature="0"
       sodipodi:nodetypes="ccccc" />
    <path
       style="fill:#ffffff;fill-rule:evenodd;stroke:#000000;stroke-width:1px;stroke-linecap:butt;stroke-linejoin:miter;stroke-opacity:1"
       d="m 544.37237,491.8571 -2.79586,-91.99492 40.37509,0.19126 2.08157,92.14286 -39.6608,-0.3392 z"
       id="path3602"
       inkscape:path-effect="#path-effect3604"
       inkscape:original-d="m 544.37237,491.8571 -2.79586,-91.99492 40.37509,0.19126 2.08157,92.14286 z"
       inkscape:connector-curvature="0"
       sodipodi:nodetypes="ccccc" />
    <path
       style="fill:#ffffff;fill-rule:evenodd;stroke:#000000;stroke-width:1px;stroke-linecap:butt;stroke-linejoin:miter;stroke-opacity:1"
       d="m 587.5,492.36218 -0.71429,-92.14285 34.85207,-0.29587 1.32397,92.42078 -35.46175,0.0179 z"
       id="path3606"
       inkscape:path-effect="#path-effect3608"
       inkscape:original-d="m 587.5,492.36218 -0.71429,-92.14285 34.85207,-0.29587 1.32397,92.42078 z"
       inkscape:connector-curvature="0"
       sodipodi:nodetypes="ccccc" />
    <path
       style="fill:#ffffff;fill-rule:evenodd;stroke:#000000;stroke-width:1px;stroke-linecap:butt;stroke-linejoin:miter;stroke-opacity:1"
       d="m 626.42857,492.36218 -1.82904,-92.58666 45.40047,0.46175 -0.22716,92.62999 -43.34427,-0.50508 z"
       id="path3610"
       inkscape:path-effect="#path-effect3612"
       inkscape:original-d="M 626.42857,492.36218 624.59953,399.77552 670,400.23727 669.77284,492.86726 Z"
       inkscape:connector-curvature="0"
       sodipodi:nodetypes="ccccc" />
    <g
       style="font-style:normal;font-variant:normal;font-weight:100;font-stretch:normal;font-size:20px;line-height:125%;font-family:'AR BLANCA';-inkscape-font-specification:'AR BLANCA Thin';letter-spacing:0px;word-spacing:0px;fill:#000000;fill-opacity:1;stroke:none;stroke-width:1px;stroke-linecap:butt;stroke-linejoin:miter;stroke-opacity:1"
       id="flowRoot3614"
       transform="translate(19.285714,268.57143)">
      <path
         d="m 303.61742,181.08058 0.54,-0.52 q 0.12,-0.12 0.34,-0.32 0.24,-0.22 0.4,-0.4 l 0.12,-0.12 q 0.74,-0.66 0.94,-0.86 0.34,-0.32 0.9,-0.9 l 0.12,0 0.36,-0.32 0.04,-0.06 0.38,-0.38 q 0.04,0.02 0.08,-0.02 0.06,-0.06 0.1,-0.04 l 0.08,-0.18 q 0.42,-0.38 0.86,-0.76 0.26,-0.22 0.52,-0.42 0.08,-0.08 0.16,-0.18 0.44,-0.32 1.14,-0.94 1.06,-0.96 1.08,-0.98 0.04,-0.02 0.04,-0.02 0.02,-0.02 0.04,-0.06 0.1,-0.06 0.2,-0.14 0.1,-0.08 0.1,-0.18 -0.26,-0.04 -0.32,0.12 -0.3,0.16 -0.58,0.32 l 0.02,-0.06 0.04,-0.1 -0.12,-0.08 0.1,-0.1 -0.04,-0.06 -0.58,0.26 -0.2,-0.06 q -0.06,0 -0.2,0.06 -0.14,0.06 -0.38,0.18 l -0.06,0.04 q 0,-0.02 0,-0.04 0.02,-0.04 0.1,-0.1 l -0.06,-0.08 -0.36,0.14 -0.04,-0.04 q -0.2,0.06 -0.38,0.12 -0.04,0 -0.06,0 l -0.22,-0.1 q -0.08,0.18 -0.1,0.18 l -0.7,0.12 -0.16,-0.06 -0.18,0.1 -0.06,-0.04 -0.6,0.06 -0.26,-0.08 0.12,-0.24 0.04,-0.1 0.28,-0.42 0.4,-0.46 -0.02,-0.08 0.04,-0.12 q 0.7,-0.28 1.64,-0.44 0.94,-0.18 1.84,-0.34 0.24,-0.06 0.56,-0.06 0.24,0 0.48,0.04 0.04,-0.06 0.12,-0.06 0.1,0 0.18,0.02 0,-0.08 0.26,-0.08 0.28,0 0.4,0.06 0,-0.1 0.12,-0.06 0.12,0.02 0.14,-0.04 l 0.38,0 q 0.06,0 0.14,-0.02 l 0.08,0 0.32,0 0,0.08 0.24,0.04 0.1,-0.12 0.24,0 0.04,0.1 0.26,-0.08 0.18,0.12 -0.06,0.06 0.08,0.18 0.08,-0.04 0.26,0.2 -0.12,0.16 q 0.08,0.04 0.04,0.1 -0.04,0.06 -0.12,0.04 l 0.02,0.28 q -0.08,0.22 -0.12,0.26 -0.06,-0.02 -0.12,-0.04 -0.16,0.2 -0.38,0.26 -0.04,0.14 0.06,0.18 l -0.48,0.18 0.24,0.14 -0.1,0.04 q -0.26,0.12 -0.5,0.22 l 0.04,0.28 q -0.1,-0.02 -0.16,-0.04 -0.04,-0.02 -0.08,-0.02 0,0.14 0,0.26 -0.08,-0.04 -0.12,-0.04 -0.02,-0.02 -0.1,-0.06 l -0.08,0.02 q -0.2,0.16 -0.24,0.24 l 0.12,0.16 -0.12,0.16 -0.36,0.02 -0.02,0.06 0.2,0 -0.26,0.08 0,0.08 0.06,0.06 -0.12,0.1 q -0.26,0.04 -0.38,0.22 l 0.02,0.08 -0.34,0.08 0,0.12 -0.18,0.16 0.24,-0.08 -0.26,0.14 -0.08,-0.02 0.06,0.2 -0.18,0 -0.18,0.28 -0.36,-0.06 q -0.06,0.12 -0.1,0.22 l 0.18,0.04 -0.04,0.1 -0.24,-0.02 q 0.08,0.1 0.08,0.18 0,0.06 -0.1,0.12 -0.08,0.06 -0.14,0 l -0.12,-0.16 q -0.04,0 -0.08,0.08 -0.04,0.08 -0.08,0.16 l 0.2,0 -0.32,0.12 -0.18,-0.06 0,0.1 0.2,0 0,0.22 -0.28,0.04 -0.12,-0.04 0,0.1 0.08,0 -0.08,0.16 -0.24,0.04 q 0.02,0.1 -0.08,0.16 -0.08,0.04 -0.08,0.08 l -0.18,0.08 -0.04,0.22 q -0.02,0.04 -0.04,0.06 -0.02,0 -0.1,0 -0.06,0 -0.22,0.08 -0.16,0.08 -0.24,0.08 l 0,0.2 0.06,0.06 q 0,0.04 -0.06,0.04 -0.06,0 -0.16,0 l -0.14,0.14 0.06,0.3 -0.18,0.06 -0.08,-0.08 -0.12,0 q 0.02,0.04 0.06,0.08 0,0.12 -0.12,0.1 -0.12,-0.02 -0.22,-0.06 -0.08,0.02 -0.08,0.24 0.04,0 0.1,-0.02 l 0.2,-0.04 0.02,0.06 q 0,0.12 -0.14,0.12 -0.24,-0.06 -0.34,-0.06 -0.08,0 -0.08,0.08 0,0.06 0.08,0.22 l 0.16,0.12 0.16,-0.02 -0.04,0.04 -0.24,-0.02 -0.3,0.12 -0.06,0.18 q -0.1,0.04 -0.14,0.08 -0.04,-0.02 -0.06,-0.1 -0.02,-0.08 -0.08,-0.08 -0.06,0 -0.06,0.24 l 0.06,0.14 -0.16,0.16 -0.14,-0.02 0.08,0.08 q 0.02,0.12 0.04,0.14 0.08,0 0.08,0.04 l -0.1,0.06 -0.2,-0.16 -0.18,0.16 0.02,0.12 -0.14,0.02 q -0.14,0 -0.14,0.08 0.02,0.06 0.06,0.16 l -0.42,0.18 0.22,0 q 0.02,0.08 -0.14,0.16 -0.14,0.06 -0.24,0.04 l -0.12,0.24 q 0.04,0.1 0.1,0.2 l 0.18,-0.04 q 0.38,-0.1 0.92,-0.1 0.02,-0.1 0.1,-0.1 0.1,0 0.08,0.06 l 0.26,-0.1 q 0.36,-0.04 0.7,-0.06 0.34,-0.02 0.54,-0.08 l 0.22,0.12 q 0.04,-0.06 0.1,-0.12 l 0.26,-0.04 q 0.02,0.06 0.06,0.12 0.1,-0.04 0.02,-0.12 l 0.2,0 0.16,-0.02 0.58,-0.12 q 0.08,0.04 0.18,0.08 0.18,-0.06 0.24,-0.08 0.06,0.02 0.12,0.04 l 0.18,0.04 -0.02,-0.06 -0.08,-0.04 q 0.06,-0.02 0.22,0.08 0.16,0.1 0.16,0.18 l -0.08,0 -0.06,0.06 0.06,0.24 -0.08,0.14 -0.2,0 q -0.04,0.02 -0.1,0.08 -0.04,0.06 0,0.1 -0.22,0.14 -0.22,0.32 l -0.22,0.08 q 0.02,0.14 -0.1,0.28 -0.12,0.14 -0.22,0.26 -0.12,0.04 -0.26,-0.08 -0.02,-0.02 -0.04,-0.06 0,0.14 -0.16,0.14 -0.06,0 -0.22,-0.06 l -0.24,0.12 -0.32,-0.1 q -0.12,0 -0.32,0.06 -0.18,0.04 -0.22,0.04 l -0.2,0.06 0,0.08 -0.08,0 0.02,-0.06 q -0.08,0.02 -0.52,0.1 -0.44,0.06 -0.6,0.06 -0.38,0.22 -0.76,0.22 -0.14,0.04 -0.14,0.08 l -0.24,-0.02 q -0.42,0.24 -0.94,0.34 -0.16,0.02 -0.34,0.06 -0.18,0.02 -0.22,0.08 -0.1,0 -0.34,0.04 -0.24,0.04 -0.26,0.04 -0.1,0 -0.36,-0.04 -0.24,-0.04 -0.26,-0.04 -0.18,-0.18 -0.36,-0.36 -0.18,-0.2 -0.3,-0.4 l 0.02,-0.42 -0.12,-0.22 q 0.12,-0.62 0.72,-1.32 0.32,-0.36 0.64,-0.72 0.04,0 0.1,0 0,-0.02 0.02,-0.12 z"
         id="path3623"
         inkscape:connector-curvature="0" />
      <path
         d="m 317.91086,173.58058 0.56,-1.02 q 0.28,-0.34 0.96,-0.68 0.7,-0.36 1.12,-0.36 l 0.42,-0.22 0.22,0 0.08,0.24 q 0,0.36 -0.28,0.94 -0.12,0.24 -0.52,0.9 l -0.1,0.02 0.04,0.18 -0.08,0.02 -0.32,0.8 -0.22,0.08 q 0.02,0.02 0.04,0.04 0.04,0 0.14,0 -0.22,0.26 -0.24,0.38 l 0.06,0.04 -0.2,0.16 0.14,0 -0.34,0.48 q -0.04,-0.04 -0.12,0.02 -0.08,0.06 -0.08,0.14 l 0.02,0.1 q 1.06,-0.4 2.88,-1.68 1.52,-1.08 3.08,-2.14 1.58,-1.08 2.32,-1.08 l 0.18,-0.14 0.28,-0.04 0.1,0.26 q -0.14,0.5 -0.74,1.22 -0.6,0.7 -1.08,0.8 l 0,0.14 q -0.22,0.06 -0.44,0.22 -0.2,0.16 -0.4,0.3 l -0.04,0.16 -0.24,0.12 q -0.04,-0.02 -0.2,0.06 -0.16,0.06 -0.18,0.06 l -0.08,0.18 -0.24,0.04 q -0.2,0.14 -0.12,0.26 -0.46,0.26 -0.76,0.42 -0.28,0.14 -0.34,0.14 l -0.06,0.18 q -0.22,0 -0.54,0.2 -0.32,0.18 -0.5,0.18 l -0.06,0.14 q -0.26,0.14 -0.56,0.14 -0.2,0.08 -0.48,0.24 -0.26,0.14 -0.5,0.26 -0.04,0.2 0.22,0.92 0.1,0.26 0.22,0.52 l -0.06,0.14 0.02,0.16 0.1,-0.02 q 0.12,0.24 0.18,0.4 0.08,0.16 0.08,0.3 l 0,0.16 0.08,0 q 0.08,0.28 0.08,0.62 l 0.18,0.14 0.18,0.46 q -0.06,0.02 -0.1,0.08 -0.02,0.04 -0.02,0.06 l 0.24,0.36 -0.14,0.14 q 0,0.04 0.06,0.08 0.06,0.02 0.12,0 0.06,0.22 0.1,0.5 0.04,0.28 0.06,0.42 l 0.1,0.12 -0.04,0.26 q 0.08,0.06 0.1,0.1 0.14,0.16 -0.02,0.22 l 0.14,0.16 -0.08,0.2 q -0.18,0 -0.14,0.16 l -0.22,-0.04 -0.02,0.34 -0.2,0.3 -0.36,0.1 -0.04,0.22 -0.22,0.08 -0.18,0.08 q -0.16,0.38 -0.54,0.54 l -0.12,-0.04 -0.28,0.28 -0.26,-0.16 q -0.36,-1.76 -0.7,-3.4 -0.68,-3.28 -1.04,-3.42 -0.08,0.14 -0.16,0.3 -0.08,0.16 -0.22,0.22 l -0.02,0.28 -0.24,0.06 q 0.02,0.02 0.06,0.04 0.06,0.02 0.06,0.06 0,0.06 -0.12,0.08 -0.1,0.02 -0.1,0.06 -0.02,0.08 -0.02,0.14 0.02,0.06 0.06,0.12 0,0.06 -0.14,0.14 -0.12,0.08 -0.1,0.12 l 0.12,0.1 -0.24,0.16 -0.1,0 -0.3,0.18 0.02,0.12 0.34,-0.08 0,0.22 q -0.06,-0.02 -0.12,0.1 -0.04,0.12 -0.22,0.16 l 0.1,0.26 -0.5,0.12 q 0.14,0.12 0.3,0.24 0,0.08 -0.18,0.08 l -0.04,0.12 -0.3,-0.02 -0.04,0.1 0.24,-0.02 0.1,0.08 q 0,0.06 -0.16,0.16 -0.04,0.02 -0.18,0.08 l 0.02,0.26 q 0,0.26 -0.24,0.72 -0.24,0.46 -0.28,0.66 l -0.16,-0.02 -0.26,0.16 0,0.08 q -0.16,0.1 -0.32,0.24 -0.14,0.14 -0.2,0.28 -0.28,0.1 -0.44,0.02 -0.26,0.22 -0.46,0.32 -0.18,0.1 -0.84,0.32 l -0.3,-0.16 q -0.06,-0.18 -0.12,-0.38 0,-0.36 0.74,-1.86 0.94,-1.84 1.88,-3.68 0.4,-0.88 1.08,-1.98 1.74,-2.82 1.94,-3.2 z"
         id="path3625"
         inkscape:connector-curvature="0" />
      <path
         d="m 325.05898,183.10058 q 0.12,0.02 0.1,-0.08 0,-0.1 0,-0.16 -0.04,0.02 -0.1,0.02 l 0.26,-0.12 0,-0.1 -0.18,0 0.2,-0.26 -0.02,-0.1 -0.22,0 0.14,-0.54 q -0.06,-0.04 -0.06,-0.16 0,-0.12 0.08,-0.3 0.06,0.06 0.14,0.12 0,-0.14 0,-0.18 l -0.12,-0.06 0.08,-0.32 -0.04,-0.1 0.2,-0.04 -0.04,-0.12 0.22,-0.02 q -0.18,-0.08 -0.3,-0.04 0.06,-0.14 0.1,-0.26 0.04,-0.14 0.04,-0.18 l 0.2,0 -0.06,-0.04 -0.08,-0.1 0.1,-0.32 0.16,0.06 q -0.04,-0.12 -0.08,-0.18 -0.02,-0.08 -0.02,-0.14 0.08,-0.24 0.12,-0.28 0.06,-0.06 0.14,-0.1 l 0.06,-0.38 q 0.04,-0.02 0.08,-0.16 0.04,-0.14 0.02,-0.2 l 0.36,-0.08 q -0.02,-0.08 -0.1,-0.06 -0.06,0.02 -0.12,0.04 0.04,-0.06 0.08,-0.12 0.06,-0.08 0,-0.16 0.04,-0.12 0.1,-0.24 0.04,0 0.16,0 l 0,-0.12 -0.12,0 0,-0.1 0.14,0 -0.04,-0.2 0.12,0 -0.02,-0.06 -0.04,-0.06 q 0.18,-0.1 0.22,-0.14 0.06,-0.06 -0.06,-0.12 l 0.2,-0.22 q -0.08,-0.1 0.08,-0.26 l 0.14,0 -0.04,-0.08 q 0,-0.14 0.32,-0.58 0.16,-0.22 0.14,-0.3 l 0.36,-0.5 0.06,0.04 0.1,-0.18 -0.08,0.04 0.02,-0.14 q 0.1,-0.04 0.46,-0.52 0.36,-0.48 0.4,-0.6 0.62,-0.68 1.14,-1.18 0.52,-0.5 0.88,-0.46 l 0.48,-0.22 0.12,-0.02 q 0.12,0 0.22,-0.02 0.3,-0.08 0.4,-0.1 l -0.04,-0.04 0.38,0 0.06,0.06 q -0.06,0.2 -0.04,0.38 l -0.22,0.16 0.06,0.12 -0.22,0.14 q -0.04,0.1 0.08,0.18 -0.2,0.18 -0.36,0.42 -0.08,-0.02 -0.08,0.06 l 0.12,-0.02 -0.1,0.08 q -0.2,0.28 -0.32,0.36 l 0.1,0.12 -0.32,0.2 q -0.06,0.16 -0.12,0.3 0,0.06 -0.08,0.08 -0.08,0 -0.18,0 l 0.08,0.12 -0.48,0.54 q 0.06,0.06 -0.1,0.2 -0.16,0.14 -0.16,0.16 l 0.08,0.12 q -0.08,0.08 -0.1,0.12 -0.08,0.14 -0.02,0.24 l -0.34,0.16 q 0.04,0.04 0.08,0.08 l 0,0.12 q 0,0.04 -0.16,0.1 -0.02,0 -0.08,0.02 l 0.06,0.1 -0.16,0.1 q -0.04,0.02 -0.08,0.16 -0.1,0.3 -0.2,0.3 -0.04,0 -0.14,-0.06 l -0.12,0.22 0.08,0.12 0.04,-0.04 0,-0.1 0.14,0.12 0,0.08 q -0.22,0.04 -0.26,0.1 -0.04,0.04 0.06,0.14 -0.08,0.12 -0.1,0.16 -0.08,0.14 -0.06,0.18 l -0.34,0.2 -0.08,-0.02 -0.02,0.08 0.36,0.02 -0.16,0.14 0,0.1 -0.22,0.14 0.1,0.14 q 0,0.08 -0.1,0.22 -0.08,0.12 -0.08,0.18 l -0.26,0.08 0.02,0.2 -0.24,0.12 q 0.18,-0.06 0.3,-0.02 l 0,0.22 -0.08,0 q -0.1,0 -0.1,0.1 0.02,0.08 -0.14,0.08 l -0.1,0.12 0.26,0.18 -0.2,0.04 -0.08,0.34 q 0.02,0.02 0.04,0.08 0.02,0.04 0.06,0.12 -0.04,0.1 -0.1,0.22 -0.04,0.1 0.02,0.18 l -0.2,0.24 0.12,0.18 -0.26,0.12 q 0.04,0.08 0.06,0.16 0.02,0.06 0.02,0.12 l -0.16,0.04 -0.16,0.16 q 0.04,0.04 0.14,-0.02 0.12,-0.06 0.16,-0.06 l 0.16,0.06 -0.16,0.34 0.2,0.24 q 0.34,0 1.12,-0.66 0.44,-0.4 0.54,-0.48 l 0.22,-0.28 q 0.06,-0.04 0.3,-0.3 0.26,-0.28 0.3,-0.26 l 0.42,-0.58 0.82,-0.94 q 0.14,0.02 0.2,-0.14 0.08,-0.16 0.14,-0.32 l 0.1,0 q 0.06,-0.14 0.24,-0.44 0.38,-0.6 0.36,-0.66 l 0.04,-0.12 0.16,-0.08 q 0,-0.14 0.12,-0.34 0.12,-0.2 0.12,-0.32 0.1,0 0.1,-0.14 0,-0.38 1.28,-2.34 1.2,-1.84 1.7,-2.34 l 0.2,-0.06 0.04,-0.06 q 0.84,-0.3 1.68,-0.62 0.04,0.06 0.18,0.06 0.28,0 0.34,0.08 -0.72,1.06 -1.12,1.66 -0.46,0.68 -0.46,0.78 l -0.12,0 0.06,0.1 -0.14,0.14 -0.06,0.3 -0.08,0 -0.18,0.34 0.02,0.1 -0.1,0.1 -0.1,0 0.08,0.04 0,0.08 -0.26,0.22 q -0.02,-0.04 -0.06,0 -0.04,0.04 0,0.08 0.04,0.04 0.06,0 0.04,-0.04 0.08,-0.1 -0.08,0.12 -0.16,0.26 0,0.02 -0.04,0.08 -0.04,0.04 -0.06,0.08 -0.08,0.12 -0.02,0.16 l -0.1,0.22 q -0.06,0.14 -0.12,0.28 l -0.18,0.04 0.16,0.12 -0.04,0.04 -0.18,0.08 -0.08,0.26 q -0.12,0 -0.12,0.16 0,0.12 0.04,0.2 -0.04,-0.02 -0.1,0.06 -0.06,0.06 -0.08,0.12 l -0.22,0.04 q -0.14,0.12 -0.14,0.36 0.02,0 0.04,0 0.04,-0.02 0.1,-0.1 l 0.04,0.1 q 0.04,0.04 0.08,0.08 l -0.24,0 0,0.08 q 0.04,0.02 0.12,0 0.02,0.06 0.04,0.12 0,0.04 -0.12,0.08 -0.1,0.04 -0.1,0.08 0,0.06 0.1,0.06 0.1,0 0.1,0.08 l -0.12,0 q -0.02,0 -0.16,0.12 -0.04,0.02 -0.12,0.1 0.06,0.02 0.14,0.02 l 0.1,0.08 -0.16,0.14 -0.1,-0.06 -0.14,0.14 0.02,0.08 0.08,-0.04 0.08,0.12 q 0,0.06 -0.08,0.06 -0.06,-0.02 -0.1,-0.02 l -0.02,0.22 0.06,-0.02 0.04,0.06 q 0,-0.02 0.02,-0.02 0.04,-0.02 0.08,-0.02 l -0.02,0.06 -0.2,0.18 -0.14,0.08 0.12,0.08 -0.12,0 q -0.06,0.1 -0.04,0.12 0.04,0.02 0.02,0.06 l -0.18,0.2 q 0,0.12 0,0.16 0,0.04 0.16,0.04 l -0.24,0.32 0.02,0.18 -0.16,0.02 q -0.06,0.2 -0.1,0.34 -0.02,0.14 -0.04,0.26 -0.04,0.08 -0.08,0.14 l 0.1,0.02 q 0,0.1 -0.06,0.14 -0.04,0.02 -0.04,0.24 l -0.08,0 q -0.1,0.28 -0.14,0.38 l 0.08,0.08 q -0.1,0.14 -0.2,0.5 -0.08,0.36 -0.08,0.54 -0.14,0.12 -0.16,0.1 l 0.04,-0.1 -0.2,0 0,0.12 q 0.02,0.08 -0.04,0.12 -0.04,0.04 -0.1,-0.04 -0.1,0.24 -0.32,0.36 -0.22,0.1 -0.4,0.1 -0.04,0.18 -0.02,0.2 l -0.24,0.08 -0.12,0.24 -0.12,0.06 -0.24,-0.02 -0.06,0.02 0,-0.08 -0.3,-0.1 -0.14,-0.24 q 0.08,0.02 0.16,0.02 -0.04,-0.14 -0.08,-0.28 l -0.04,-0.2 q 0.1,-0.54 0.22,-1.1 0,-0.12 0.02,-0.26 0.08,-0.1 0.06,-0.18 l 0.12,-0.18 0.06,0.02 0,-0.08 q -0.04,-0.02 -0.08,-0.04 l 0.18,-0.14 -0.16,-0.16 0.06,-0.04 q 0.1,-0.22 0.08,-0.36 -0.12,0.12 -0.32,0.24 -0.38,0.24 -0.38,0.38 l -0.16,0.02 0.02,0.08 -0.24,0.06 -0.04,0.14 q -0.28,0.1 -0.46,0.32 -0.04,0.16 -0.04,0.24 l -0.18,0.08 0.02,0.14 q -0.08,-0.06 -0.16,-0.14 l -0.12,0.26 q -0.22,0.06 -0.28,0.08 l 0,0.14 q -0.16,0.1 -0.34,0.32 -0.18,0.2 -0.44,0.28 l -0.04,0.14 -0.2,0.08 q 0.06,0.04 0,0.1 -0.06,0.04 -0.14,0 l -0.36,0.36 0.02,-0.06 0,-0.08 q -0.14,0 -0.26,0.1 -0.12,0.1 -0.24,0.2 l -0.04,0.14 q -0.22,0.08 -0.36,0 l -0.16,0.18 q -0.06,-0.02 -0.1,0 -0.04,0.04 -0.06,0.06 l -0.02,-0.06 -0.24,-0.02 q -0.08,0 -0.14,0 -0.14,-0.1 -0.28,-0.18 -0.06,-0.22 -0.24,-0.4 l 0.2,-0.12 0.04,-0.04 -0.2,-0.04 q -0.08,-0.02 -0.08,-0.08 0,-0.06 0,-0.14 l -0.06,-0.02 q 0,-0.1 0.2,-0.06 l 0.06,-0.12 -0.2,-0.1 q 0,-0.04 -0.16,-0.1 l -0.02,-0.4 z"
         id="path3627"
         inkscape:connector-curvature="0" />
      <path
         d="m 336.24055,182.06058 q 0,-1.46 1.06,-2.24 0.52,-0.38 2.34,-1.08 l 0.04,0.24 -0.22,0.38 q -0.02,0 -0.1,0.02 -0.06,0.02 0.02,0.14 l -0.2,0.14 0.04,0.1 -0.16,0.1 q 0.1,0.1 0.1,0.14 0,0.06 -0.08,0.12 l -0.18,-0.02 q -0.08,0.04 0,0.14 0.08,0.08 0.08,0.12 l -0.1,0 -0.06,0.16 -0.04,0.16 -0.16,0.56 q 0.06,0 0.04,0.06 0,0.04 -0.1,0.16 l 0.12,0.06 q 0.08,0.38 0.08,0.44 0.02,0.06 0.12,0.22 l -0.02,0.14 q 0.2,0.24 0.6,0.46 0.42,0.22 0.8,0.4 0.14,-0.04 0.24,0.02 l 0.34,0.06 q 0.68,0.08 1.24,-0.46 0.58,-0.54 0.58,-1.22 0,-0.46 -0.38,-1.1 -0.14,-0.24 -0.7,-0.98 l -0.04,-0.06 -0.54,-0.54 0.02,-0.1 q -0.1,-0.08 -0.22,-0.2 -0.12,-0.12 -0.2,-0.22 l 0.02,-0.06 q -0.44,-0.12 -0.96,-1.1 -0.5,-1 -0.5,-1.54 0,-1.66 2.74,-3 2.32,-1.14 4.02,-1.14 0.06,0 0.16,0.1 0.12,0.08 0.18,0.08 l 0.22,-0.14 0.24,0.06 -0.02,0.14 0.18,0 q 0.06,0.06 0.12,0.1 0.08,0.04 0.26,0.08 l 0.04,0.2 q 0.04,0.04 0.1,0 0.06,-0.04 0.04,-0.08 l 0,0.2 0.22,0 0,0.1 -0.1,-0.04 -0.18,0.22 0.2,0 0.18,-0.06 0,0.16 -0.18,0.12 0,0.28 q 0.08,0 0.14,-0.1 0.06,-0.12 0.12,-0.12 0.06,0.14 0.06,0.22 0,0.14 -0.08,0.28 0.08,0.04 0.16,0.08 l -0.14,0.26 0.06,0.18 0.14,-0.14 -0.04,0.28 0.06,0.08 -0.1,0.2 0.08,0.08 q -0.02,0.02 -0.12,-0.06 -0.04,0.02 -0.06,0.02 0.06,0.1 0.16,0.12 l -0.08,0.14 -0.08,0.02 0.04,0.04 q 0,0.06 -0.12,0.06 l -0.08,0.08 0.14,0.04 0,0.22 -0.14,-0.04 -0.08,0.2 0.1,0 -0.26,0.26 0.04,0.04 -0.08,0.26 -0.4,0.08 0.08,0.12 q -0.08,0.08 -0.2,0.26 -0.12,0.18 -0.16,0.28 -0.12,0 -0.24,0.04 -0.1,0.04 -0.34,0.14 l 0.06,0.02 q -0.26,0.1 -0.8,0.3 -0.54,0.2 -0.82,0.28 -0.26,0.06 -0.3,0.1 l -0.4,-0.06 q -0.06,0 -0.12,0.02 -0.06,0.02 -0.12,0.06 l -0.22,0.04 -0.04,-0.18 1.3,-1.58 -0.06,-0.04 q 0.18,-0.12 0.3,-0.38 0.14,-0.28 0.18,-0.56 0.08,-0.22 0.18,-0.44 -0.06,-0.58 -0.1,-0.98 -0.04,-0.42 -0.46,-0.52 l -0.2,0.06 -0.14,-0.04 q -0.14,0.12 -0.62,0.36 -0.48,0.24 -0.64,0.48 l -0.08,0 -0.22,0.2 -0.44,0.42 -0.06,0.04 q -0.16,0.3 -0.32,0.6 -0.14,0.3 -0.14,0.7 0,0.78 0.54,1.48 0.12,0.16 1.14,1.18 l -0.14,0.04 q 0,0.04 0.14,0.06 0.1,0.06 0.18,0.12 0.08,0.04 0.14,0.1 l -0.14,0.08 0,0.14 0.12,0.08 q 0,-0.16 0.02,-0.2 0.04,-0.06 0.08,0 0.14,0.14 0.18,0.2 0.04,0.04 0.18,0.3 0.02,0.02 -0.04,0.08 -0.06,0.06 -0.08,0.08 l 0.08,0.06 0.02,0.1 q 0.08,-0.04 0.16,-0.08 l 0.24,0.5 0.08,0.04 0,0.32 0.18,0.02 q 0,0.12 0.04,0.26 0.04,0.14 0.1,0.28 -0.06,0.04 -0.06,0.2 0,0.18 0.02,0.28 0.02,0.1 0.08,0.28 -0.06,0.12 -0.08,0.28 -0.02,0.16 -0.06,0.24 l -0.18,0.12 q -0.04,0 -0.08,-0.02 0,0.06 0.06,0.36 l -0.08,0 0,0.08 -0.14,-0.04 -0.08,0.14 0.14,0.14 q -0.2,0 -0.2,-0.04 l -0.3,0.08 0,0.2 -0.2,0.04 -0.14,-0.04 -0.04,0.14 q -0.04,0.04 -0.12,0.04 -0.08,-0.02 -0.12,-0.02 l -0.02,0.1 -0.38,0.08 0.04,0.12 q -0.18,0 -0.4,0.1 -0.22,0.08 -0.3,0.2 l -0.22,-0.02 -0.24,0.1 -0.5,0.16 0,0.12 -0.3,0.02 q -0.04,0.08 -0.08,0.08 -0.06,-0.04 -0.12,-0.08 l -0.14,0.1 q -0.08,-0.02 -0.2,-0.04 -0.1,-0.02 -0.12,0.04 l 0.06,0.08 q -0.14,0.02 -0.2,0.06 -0.06,0.02 -0.1,0.06 l -0.3,-0.06 q -0.1,0.08 -0.2,0.14 l -0.24,-0.02 q -0.02,0.04 -0.18,0.1 l -0.2,-0.1 -0.08,0.04 -0.36,0.06 0,-0.12 q -0.24,0.06 -0.3,0.06 -0.14,0 -0.14,-0.16 l -0.12,0.06 -0.06,-0.14 -0.2,0.08 q -0.04,-0.18 -0.04,-0.28 -0.14,-0.08 -0.1,-0.2 -0.12,0.06 -0.26,0.1 -0.12,0.02 -0.24,-0.02 -0.02,-0.06 -0.04,-0.08 -0.02,-0.02 -0.06,-0.04 l 0.14,-0.24 q -0.06,-0.04 -0.18,-0.04 -0.12,0 -0.18,0.02 l -0.18,-0.08 q 0.06,-0.08 0.12,-0.18 0,-0.04 -0.1,-0.06 -0.08,-0.02 -0.08,-0.16 l -0.08,0 q -0.1,-0.04 -0.14,-0.04 l -0.16,-0.36 q 0.08,-0.04 0.18,-0.1 l -0.24,-0.08 q 0.1,-0.18 -0.04,-0.4 l 0.04,-0.1 q 0.04,-0.08 -0.04,-0.1 z"
         id="path3629"
         inkscape:connector-curvature="0" />
      <path
         d="m 346.62367,183.28058 0.04,-0.2 q 0.12,0.02 0.12,-0.24 l 0.5,-0.94 0,-0.12 q 0.08,-0.12 0.16,-0.32 0.08,-0.22 0.12,-0.4 0.06,-0.02 0.3,-0.52 0.1,-0.2 0.28,-0.64 l 0.12,-0.04 0,-0.24 q 0.02,-0.04 0.1,-0.04 0.04,-0.04 0.02,-0.18 l 0.24,-0.28 q -0.04,0.02 -0.08,-0.06 l 0.14,0 -0.1,-0.12 0.16,-0.08 -0.02,-0.08 q 0.02,-0.1 0.06,-0.2 l 0.08,0 q 0.12,0.02 0.16,-0.14 0,-0.1 0.14,-0.3 0.16,-0.22 0.16,-0.28 0.1,-0.12 0.08,-0.2 l 0.28,-0.1 q -0.04,-0.08 -0.08,-0.18 l -0.08,0 q 0,-0.06 0.08,-0.08 0.08,-0.02 0.18,-0.04 l -0.02,-0.06 -0.04,-0.12 q 0.14,-0.14 0.26,-0.4 0.14,-0.26 0.26,-0.5 0.36,-0.54 0.74,-1.1 l 0.12,0 q 0,-0.2 0.26,-0.62 0.26,-0.42 0.26,-0.44 l -0.14,-0.06 q -0.3,0.1 -0.68,0.1 l -0.04,-0.18 q 0,-0.68 0.84,-1.48 0.86,-0.82 1.5,-0.72 0.06,-0.04 0.14,-0.08 0.1,-0.04 0.22,-0.08 l 0.28,-0.04 0.08,0.08 0.16,-0.2 0.16,0.16 0.12,0 0.06,-0.14 0.08,0.02 q 0.04,-0.08 0.06,-0.14 0.04,-0.06 0.1,-0.02 0.04,0.06 0.1,0.12 0,-0.12 0.14,-0.12 0.04,0 0.08,0.02 0.04,0 0.08,0.02 l 0.08,0 q 0.22,-0.22 0.48,-0.22 0.02,0 0.18,-0.04 0.02,0.02 0.04,0.04 l -0.2,0.12 0.3,-0.14 -0.02,-0.08 0.14,0.08 q 0.06,0.02 0.16,-0.04 0.12,-0.06 0.18,-0.06 l 0.14,0.12 0,-0.08 0.24,-0.14 0.08,0.02 0.08,0.2 0.1,0 -0.02,-0.08 0.02,-0.12 q 0.08,0 0.1,0 0,0.04 0,0.06 0.24,0.02 0.68,-0.1 0.44,-0.12 0.52,-0.12 0.1,0 0.08,0.06 0,0.04 0,0.1 l 0.12,0.12 -0.02,-0.12 q 0.02,-0.04 0.08,-0.08 0.06,-0.06 0.18,-0.1 l 0.4,0.06 q 0.2,-0.04 0.3,-0.06 0.28,-0.08 0.38,-0.12 0.12,0.06 0.26,0.14 0.16,0.06 0.16,0.12 l -0.46,0.48 q 0.04,0.04 -0.02,0.08 -0.06,0.04 -0.08,0.04 l -0.06,0.18 -0.32,0.18 q 0,0.16 -0.28,0.44 -0.04,0.06 -0.46,0.42 l -0.06,-0.02 q -0.12,0.06 -0.1,0.1 -1.16,0.16 -2.3,0.3 -1.52,0.3 -1.84,0.92 l -0.26,0.38 -0.08,0.02 q -0.02,0.12 -0.06,0.18 -0.1,0.14 -0.2,0.28 l 0.04,0.14 -0.12,0 -0.16,0.18 q 0.02,0.06 0.04,0.1 -0.04,0.08 -0.08,0.14 l -0.42,0.6 q -0.18,0 -0.26,0 l -0.04,0.08 q 0,0.06 0.08,0.06 0.08,0 0.16,0 l -0.04,0.16 0.34,0 q 0.2,-0.06 0.36,-0.1 0.18,-0.04 0.36,-0.04 0.06,0.04 0.1,0 0.04,-0.04 0.02,-0.1 0.24,-0.02 0.5,-0.06 0.26,-0.06 0.46,-0.16 0.12,0.04 0.26,0.02 0.14,-0.04 0.14,0.02 l 0.18,-0.04 0.34,-0.08 0.08,0.1 q 0.1,-0.06 0.26,-0.1 0.16,-0.06 0.18,0.04 l 0.28,-0.08 0.38,0.08 0.04,0.26 q -0.08,0.12 -0.32,0.34 -0.24,0.22 -0.28,0.32 -0.3,0.16 -0.58,0.5 -0.28,0.32 -0.54,0.62 l -0.68,0.16 0,-0.08 q -0.06,0.04 -0.1,0.06 l -0.64,0.06 q 0,-0.02 0,-0.06 -0.02,0 -0.12,0.08 l -0.22,0 -0.04,-0.06 -0.22,0.12 q -0.1,0.04 -0.14,0 -0.04,-0.04 -0.04,-0.06 l -0.18,0.12 q -0.18,0.04 -0.28,0.04 l -1.24,0.46 0,0.08 -0.12,0.16 q -0.08,0.06 -0.14,0.1 l -0.24,0 0,0.08 0.24,0.06 q 0,0.18 -0.1,0.18 -0.22,-0.08 -0.3,-0.08 l 0,0.16 0.24,0.14 -0.12,-0.02 q -0.08,0 -0.2,0.1 -0.12,0.1 -0.12,0.2 l 0.14,-0.16 q 0.02,-0.02 0.18,-0.04 l -0.02,0.06 -0.02,0.08 -0.08,0.06 -0.18,0.26 q -0.02,0.04 0,0.06 0.04,0.02 0.1,0.02 l -0.06,0.06 -0.04,0.14 -0.1,0.02 q -0.06,0.26 -0.16,0.22 l -0.06,0.22 0.08,0 q -0.08,0.18 -0.12,0.28 -0.1,0.22 -0.16,0.26 -0.08,-0.04 -0.16,-0.1 l -0.18,0.12 0.06,0.1 0.18,-0.1 0,0.34 -0.16,0.1 -0.02,0.28 q -0.14,-0.02 -0.14,0.22 0.08,0.06 0.12,0.08 0.16,0.1 0.22,0.1 l -0.04,-0.12 q 0.06,0.02 0.14,0.04 0.06,-0.12 0.12,-0.12 0.14,0.06 0.28,0.12 -0.04,-0.06 -0.08,-0.12 0.08,-0.1 0.06,-0.12 0.18,0.02 0.34,-0.04 0.16,-0.08 0.18,-0.08 l 0.12,0.04 0.22,-0.08 q 0.1,0 0.16,0 0.18,-0.06 0.26,-0.08 0.4,0.04 0.56,0.04 l -0.06,-0.06 q 0.16,-0.12 0.28,-0.12 0.1,0 0.1,0.14 l 0.04,-0.1 0.26,-0.12 0.12,0.24 0.04,-0.16 0.22,-0.04 q -0.02,-0.06 0.04,-0.08 0.08,-0.02 0.24,-0.02 0.22,0.02 0.26,0.02 l 0.04,-0.04 q 0.3,-0.06 0.38,-0.06 0.1,-0.02 0.32,-0.02 0.06,0 0.16,0.08 0.12,0.06 0.14,0.08 l -0.02,0.36 -0.18,0.08 q 0,0.02 0.06,0.04 0.06,0.02 0.06,0.08 l -0.06,0.04 -0.02,0.22 q -0.32,0.04 -0.5,0.24 l 0.02,0.08 q -0.1,0.12 -0.2,0.22 -0.18,0.18 -0.26,0.16 l -0.2,0.3 q -0.82,0.38 -2.54,0.72 -2.14,0.42 -2.6,0.56 -0.18,0.08 -0.56,0.2 -0.38,0.12 -0.4,0.12 -0.56,0 -0.84,-0.7 -0.1,-0.28 -0.18,-0.66 l 0.14,-0.32 -0.02,-0.16 z"
         id="path3631"
         inkscape:connector-curvature="0" />
      <path
         d="m 357.24461,181.76058 q 0.06,-0.12 0.5,-0.96 0.22,-0.42 0.28,-0.58 1.02,-1.68 2.04,-3.36 1.24,-2.08 1.86,-3.46 l -0.08,0 q -0.16,0 -0.6,0.14 -0.42,0.14 -0.5,0.16 l -0.34,-0.1 q 0.06,-0.4 0.46,-0.9 0.34,-0.42 0.74,-0.74 0.14,-0.1 0.22,-0.18 0.2,-0.18 0.18,-0.24 0.56,-0.12 1.12,-0.26 0.62,-0.12 1.16,-0.12 1.26,0 1.94,0.12 1.12,0.2 1.74,0.78 0.14,0.1 0.1,0.18 l 0.22,0.08 q 0.16,0.24 0.32,0.46 l 0.08,0.18 0.08,0.26 -0.08,0.18 0.06,0.22 -0.1,0.18 q 0.02,0.02 0,0.12 -0.02,0.08 -0.08,0.04 l -0.04,0.22 q -0.14,0.18 -0.28,0.36 -0.12,0.18 -0.32,0.26 l 0.14,-0.06 -0.04,-0.04 0.22,-0.02 0.02,0.06 q -0.36,0.18 -0.76,0.44 -0.4,0.26 -0.58,0.36 l -0.08,-0.02 q -0.04,0 -0.02,0.08 0.02,0.06 0,0.08 -0.14,0 -0.32,0.08 -0.3,0.16 -0.6,0.32 -0.12,0.12 -0.24,0.2 -0.12,0.06 -0.32,0.12 -0.06,0.06 -0.04,0.1 0.62,0.24 0.66,0.26 0.28,0.18 0.42,0.26 0.14,0.06 0.08,0.14 0.72,0.36 0.9,0.96 0.12,0.8 0.22,1.3 l -0.1,0.2 q -0.06,0.04 -0.08,0.14 -0.02,0.1 -0.02,0.18 -0.14,0.02 -0.1,0.12 0.04,0.1 0.04,0.12 l -0.12,-0.02 -0.22,0.2 q 0.04,0 0.16,0.04 0,0.16 -0.06,0.16 -0.14,-0.04 -0.22,-0.04 -0.06,0 -0.1,0.08 -0.04,0.06 -0.04,0.08 0.12,0.02 0.2,0.02 l -0.22,0.26 0.16,0 -0.42,0.1 -0.2,0.32 0.02,0.08 -0.2,0.04 -0.04,0.06 0.12,0 q 0,0.06 -0.06,0.08 -0.06,0 -0.14,0 -0.02,0.12 -0.04,0.22 -0.3,0.2 -0.46,0.32 -0.32,0.22 -0.44,0.34 l -0.08,0 -0.38,0.34 -0.06,-0.04 -0.2,0.26 -0.2,0 q -0.2,0.2 -0.46,0.24 0,0.06 0,0.12 l -0.18,0.16 -0.34,-0.04 -0.04,0.16 -0.24,0 0,0.16 -0.24,0.1 q -0.06,-0.04 -0.1,-0.08 l 0.04,0.08 q -0.1,0.1 -0.4,0.18 -0.04,0.06 -0.08,0.12 l -0.42,0.16 q -0.7,0.26 -1.3,0.38 -0.58,0.14 -1.24,0.14 -0.32,0 -0.7,-0.1 -0.94,-0.24 -1.18,-0.24 -0.26,-0.26 -0.52,-0.54 l -0.04,-0.18 -0.08,0 q -0.14,-0.52 -0.14,-0.9 l 0.12,-0.24 q 0.56,-0.48 0.7,-1 z m 2.38,1.12 0.02,0.12 q 0.28,0.08 0.64,0.12 0.36,0.04 0.72,0.04 1.62,0 2.8,-0.88 1.32,-0.98 1.32,-2.56 0,-0.84 -0.7,-1.3 -0.7,-0.48 -1.54,-0.48 l -0.14,0.06 q -0.18,0 -0.38,0.02 -0.2,0.02 -0.4,0.04 -0.12,0.16 -0.28,0.16 l 0.06,0.06 0.02,0.08 -0.04,0.18 -0.14,0.04 0.14,0.04 q -0.18,0.1 -0.36,0.08 l -0.04,0.16 0.24,-0.02 q -0.12,0.18 -0.22,0.28 -0.08,0.1 -0.14,0.1 0,0.06 -0.04,0.2 -0.04,0.14 -0.06,0.22 -0.06,0.02 -0.16,0.16 l 0.22,0.04 -0.2,0.24 -0.2,0.1 0.04,0.06 0.1,0 q -0.22,0.16 -0.36,0.52 -0.12,0.04 -0.34,0 l -0.04,0.04 0,0.08 0.28,0.06 q 0.02,0.04 0.06,0.06 l 0.04,-0.08 -0.04,0.16 -0.24,0.02 -0.04,0.14 0.22,0 0,0.1 -0.12,0.02 0,0.12 -0.18,0.08 0.12,0.06 -0.02,0.1 -0.22,0.08 -0.22,0.12 0,0.08 0.04,0.06 -0.08,0.22 0.04,0.04 0.08,0 -0.04,0.22 -0.18,0.02 -0.16,0.32 0.12,0 z m 3.24,-6.3 q 0.14,0 0.34,-0.08 0.22,-0.1 0.42,-0.2 l 0.82,-0.34 q 0.74,-0.34 1.18,-0.68 0.7,-0.54 0.7,-1.06 0,-0.46 -0.56,-0.72 -0.54,-0.26 -1.06,-0.26 -0.24,0 -0.52,0.44 -0.12,0.18 -0.34,0.7 l -0.08,0.1 0.1,0 q -0.08,0.12 -0.3,0.24 l 0.02,0.06 q 0.02,0.12 -0.14,0.24 0,0.18 -0.08,0.32 l -0.16,0.1 0.22,0.04 0.02,0.14 q -0.32,0 -0.34,0.2 l -0.12,0 -0.04,0.12 0.04,0.1 -0.08,0.14 -0.04,-0.04 -0.04,0.16 -0.04,0.28 0.08,0 z"
         id="path3633"
         inkscape:connector-curvature="0" />
      <path
         d="m 368.49867,182.38058 0.1,0.02 q 0.42,-1.08 1.32,-2.48 0.82,-1.2 1.64,-2.42 1,-1.5 1.46,-2.48 l 0.08,-0.02 q 0.44,-0.94 0.56,-1.2 0.36,-0.74 0.56,-1.22 0.06,0.04 0.08,0 0.02,-0.04 0.02,-0.06 0.16,-0.16 0.48,-0.3 0.78,-0.42 1.58,-0.84 0.28,0.48 0.38,1.12 0.1,0.62 0.1,1.4 l 0,0.48 0.1,0 0.1,0.44 -0.08,0.18 0.08,0.2 -0.08,0.12 q 0.08,0.24 0.08,0.36 0,0.24 0.08,0.38 -0.06,0.12 -0.06,0.28 0,0.1 0,0.18 0.04,0.08 0.04,0.1 l -0.1,0.1 q 0.08,0.02 0.14,0.08 0.06,0.04 0,0.14 -0.08,0.02 -0.1,0.04 -0.12,0.1 -0.12,0.26 0,0.12 0.08,0.1 0.1,-0.02 0.22,-0.08 l -0.08,0.36 q 0.02,0.08 0.06,0.14 l 0.04,0.26 q 0,0.16 -0.04,0.18 -0.04,0.02 -0.06,0.04 l 0.14,0.28 0.08,-0.02 q 0.32,-0.6 0.9,-1.38 0.5,-0.66 1.02,-1.34 0.32,-0.48 0.66,-0.96 1.12,-1.52 1.4,-1.84 0.84,-0.96 1.76,-1.42 0.2,0 0.4,-0.1 0.3,-0.16 0.6,-0.32 l 0.22,0.1 0,0.12 q -0.24,0.58 -0.7,1.3 -0.28,0.44 -0.84,1.22 l 0,0.12 q -0.16,0.08 -0.28,0.3 -0.1,0.22 -0.1,0.44 -0.04,0.02 -0.16,0.16 -0.1,0.14 -0.18,0.18 l 0.02,0.16 q -0.12,0.1 -0.08,0.16 l -0.24,0.24 -0.14,0.18 0.1,0.1 q 0,0.1 -0.18,0.06 0,0.1 0.02,0.2 l -0.08,0.16 -0.38,0.06 q -0.04,0.12 0.04,0.32 0.02,0.02 0.04,0.04 0.04,0.02 0.02,0.04 -0.02,0.02 -0.2,0.12 -0.18,0.08 -0.22,0.12 l 0,0.1 -0.02,0.18 q -0.08,-0.06 -0.12,-0.04 -0.08,0.08 -0.16,0.22 -0.08,0.14 -0.12,0.2 l -0.1,0.08 0,0.34 -0.36,0.16 q 0.06,0.14 0.06,0.22 0,0.1 -0.14,0.22 -0.12,0.1 -0.26,0.12 l -0.1,0.26 0.06,0.1 q -0.1,0.08 -0.16,0.14 -0.06,0.04 -0.06,0.24 l -0.12,-0.02 q -0.2,0 -0.24,0.16 -0.04,0.14 0.1,0.14 l 0,0.22 -0.24,-0.04 -0.18,0.38 q 0.02,0.04 0.04,0.06 l -0.24,0.22 -0.04,0.26 -0.08,0.06 0.02,0.24 -0.12,-0.02 q -0.06,0 -0.06,0.1 0.02,0.08 0.04,0.12 l -0.32,0.24 -0.08,0.28 q 0.1,0.1 0.08,0.12 -0.24,0.2 -0.36,0.44 -0.12,0.22 -0.24,0.62 l -0.22,0.14 q -0.04,0.2 -0.12,0.34 -0.06,0.14 -0.2,0.24 l -0.14,-0.02 -0.04,0.14 q -0.04,0 -0.14,0.02 -0.08,0.02 0,0.18 l -0.28,-0.08 q 0,0.16 -0.3,0.26 -0.28,0.08 -0.44,0.08 -0.02,0.1 -0.04,0.12 -0.08,0.12 -0.14,0.06 l 0,0.26 -0.3,0.04 -0.14,-0.06 q -0.1,-0.18 -0.2,-0.36 -0.08,-0.2 -0.08,-0.38 0,-0.06 0.04,-0.18 l -0.08,-0.22 0.1,-0.22 -0.12,-0.26 q 0.08,0 0.08,-0.18 0,-0.26 0,-0.52 0.06,-0.06 0,-0.1 -0.06,-0.06 -0.08,-0.1 l 0.04,-0.16 0.02,-0.22 0.08,-0.16 q -0.06,-0.38 -0.08,-0.98 -0.02,-0.6 -0.02,-0.68 0,-0.44 0,-0.88 0,-0.44 0.02,-0.9 0,-0.74 -0.04,-1.14 -0.02,-0.4 -0.14,-0.94 -0.2,0.14 -0.78,1.2 -0.36,0.66 -0.7,1.3 -0.12,0.16 -0.2,0.26 -0.16,0.22 -0.12,0.28 -0.08,0.1 -0.2,0.34 -0.12,0.24 -0.24,0.3 -0.04,0.14 -0.08,0.24 -0.02,0.1 -0.1,0.1 l -0.18,0.1 q 0.12,0.1 0.1,0.16 -0.14,0.06 -0.26,0.28 -0.1,0.22 -0.14,0.42 l -0.16,0.04 -0.02,0.3 -0.16,0.16 0.06,0.24 q -0.14,-0.04 -0.2,0.12 -0.04,0.14 -0.08,0.12 l -0.12,0.34 0.04,0.12 -0.24,0.14 -0.04,0.2 -0.08,0 q -0.2,0.28 -0.48,0.48 l 0,0.12 -0.38,0.22 q 0.02,0.08 -0.1,0.16 -0.02,0 -0.06,0.02 -0.28,0.22 -0.58,0.42 -0.28,0.2 -0.62,0.32 l -0.44,-0.22 -0.14,-0.24 q 0,-0.24 0.1,-0.46 0.08,-0.24 0.12,-0.38 0.26,-0.54 0.36,-0.7 0.1,-0.18 0.3,-0.42 z"
         id="path3635"
         inkscape:connector-curvature="0" />
      <path
         d="m 381.10555,182.78058 q 0.08,-0.18 0.26,-0.42 0.18,-0.26 0.26,-0.38 0.18,-0.22 0.26,-0.34 0.16,-0.22 0.24,-0.38 0.06,-0.06 0.12,-0.12 l 0.98,-1.32 q 0.08,-0.08 0.18,-0.16 0.16,-0.26 0.36,-0.52 0.28,-0.38 0.4,-0.4 0.2,-0.34 0.52,-0.72 0.32,-0.4 0.64,-0.78 l 0.38,-0.48 0.14,-0.04 0.18,-0.32 q 0.08,-0.04 0.18,-0.1 0.2,-0.42 0.48,-0.74 l 0.02,-0.08 q 0.28,-0.22 0.52,-0.5 0.26,-0.3 0.52,-0.6 0.82,-0.82 1.4,-1.54 0.2,-0.2 0.36,-0.4 0.3,-0.34 0.54,-0.74 l 0.06,0.06 q 0.24,-0.18 0.62,-0.28 0.38,-0.12 0.56,-0.2 l 0.18,-0.08 0.14,0 0.04,-0.08 0.48,-0.04 0.18,0.06 q 0.02,0.18 -0.1,0.42 0.04,-0.02 0.06,0.02 0.04,0.02 0.06,0.04 l -0.1,-0.02 q -0.14,0.68 -0.28,1.36 -0.24,1.1 -0.36,1.26 0.04,0.02 0.08,0.04 0.06,0.02 0.02,0.1 l -0.2,0.36 0.1,0.26 q -0.04,0.16 -0.1,0.48 -0.04,0.3 -0.08,0.56 l -0.16,0.2 0,0.52 -0.08,0 0.06,0.24 q -0.06,0.12 -0.1,0.36 -0.02,0.22 -0.04,0.3 l 0.06,0.32 -0.14,0.18 q 0.02,0.08 0.04,0.2 0.04,0.12 0.04,0.16 0,0.12 -0.08,0.14 l 0,-0.08 -0.04,0.04 q 0,0.18 0.16,0.14 -0.02,0.1 -0.1,0.74 -0.06,0.64 -0.06,0.66 0,0.14 0.02,0.2 l -0.24,0.16 -0.02,0.22 0.18,-0.04 q 0.14,0.04 0.08,0.18 -0.06,0.14 -0.1,0.18 l 0.18,0.18 q 0.04,0.08 -0.08,0.1 -0.1,0.02 -0.1,0.06 l 0,0.08 q 0.12,0.08 0.12,0.14 0,0.04 -0.12,0.02 l 0.02,0.18 q 0.02,0.2 0.04,0.4 -0.12,0.14 -0.12,0.24 0,0.08 0.1,0.1 0.12,0.02 0.12,0.12 l -0.06,0.02 q 0.06,0.24 -0.04,0.6 -0.08,0.36 -0.22,0.64 l -0.26,-0.04 q -0.02,0 -0.08,0.12 -0.06,0.1 -0.16,0.06 l -0.1,0.24 q -0.6,0.32 -1.2,0.64 -0.36,-0.12 -0.54,-0.6 -0.16,-0.48 -0.16,-1.04 0,-0.26 0.04,-0.54 0.04,-0.3 0.06,-0.4 0.02,-0.1 0.06,-0.24 0.06,-0.16 -0.02,-0.2 l 0,-0.3 0.12,-0.08 q -0.08,-0.1 -0.12,-0.08 l 0,-0.86 -0.28,-0.04 -0.24,0.08 q -0.06,-0.06 -0.1,-0.06 -0.04,0 -0.08,0.1 l -0.2,0 q -0.04,-0.04 -0.08,-0.08 -0.08,0.12 -0.24,0.16 -0.16,0.04 -0.26,0.06 0.02,-0.1 0.02,-0.12 0,-0.04 0.02,-0.08 l -0.1,0 q -0.04,0 -0.14,0.08 -0.3,0.22 -0.66,0.22 -0.06,0 -0.28,0.16 -0.06,0.04 -0.22,0.16 l -0.36,-0.2 q -0.1,0.18 -0.12,0.28 l -0.3,0.06 -0.14,0 -0.32,0.16 -0.12,0.24 -0.14,-0.04 -0.16,0.06 -0.04,0.3 q -0.1,0.14 -0.26,0.28 -0.14,0.14 -0.28,0.2 l -0.04,0.16 0.14,0 q -0.04,0.1 -0.08,0.16 -0.04,0.04 -0.08,-0.02 -0.28,0.24 -0.28,0.58 -0.22,0.04 -0.5,0.24 -0.28,0.2 -0.32,0.38 l -0.34,0.3 q -0.04,0.02 -0.08,-0.04 -0.04,-0.06 -0.02,-0.08 l -0.94,0.48 -0.42,0.26 -0.16,-0.02 -0.14,-0.26 q 0.1,-0.54 0.54,-1.2 0.24,-0.34 0.48,-0.7 l 0.06,-0.04 z m 7.42,-4.58 0.1,-0.04 q 0.18,-1.12 0.38,-2.26 l 0.18,-0.74 q -0.12,0.14 -0.3,0.18 -0.1,0.16 -0.38,0.5 -0.26,0.34 -0.32,0.56 -0.2,0.1 -0.34,0.28 -0.42,0.56 -0.48,0.6 -0.2,0.44 -0.58,0.8 -0.1,0.24 -0.18,0.46 0.34,0 0.7,-0.08 1.16,-0.26 1.22,-0.26 z"
         id="path3637"
         inkscape:connector-curvature="0" />
    </g>
  </g>
</svg>
